<?xml version="1.0" encoding="UTF-8"?>
<svg id="Layer_1" xmlns="http://www.w3.org/2000/svg" version="1.1" viewBox="0 0 93.7 150.3">
  <!-- Generator: Adobe Illustrator 29.1.0, SVG Export Plug-In . SVG Version: 2.1.0 Build 142)  -->
  <defs>
    <style>
      .st0 {
        fill: #ea80ff;
      }
    </style>
  </defs>
  <path class="st0" d="M93.1,11.5c-.3-.3-.6-.7-1-1.2-1.7-2.1-4.3-5.3-6.8-7.5-1.7-1.5-3.3-2.4-4.6-2.7-2.5-.5-4.5,1.1-5.3,4.4-.3,1-.5,2.3-.7,3.7-.6,4-1.5,9.1-4.4,12.9-.4.6-.6,1.3-.5,2,0,.7.5,1.3,1,1.8.5.4,1.1.5,1.6.5.8,0,1.6-.4,2.1-1.1,2.7-3.5,3.9-8,4.7-11.9,2.7,15.6.2,33.5-7.5,53.4-4-.6-8.5,1.5-11.6,3.5-6.2,3.9-12.6,10.5-16,16.5-1.6,2.8-2.5,5.4-2.5,7.5,0,2,.7,3.6,2,4.8,1.5,1.3,4.8,2.9,10.6-.5,7.7-4.6,16.5-16,19-21.6.6-1.3,1.2-2.7,1.7-4,0,0,0,0,0,0,1.2.4,2.2.9,2.9,2,1.2,1.7,1.8,4.2,1.9,7.2,0,3.5-.8,7.9-2.4,12.9-5.6,17.3-17.1,29.9-35.4,38.5-11.1,5.2-22.4,8-31.5,10.2-3.2.8-6.2,1.5-8.7,2.2-.7.2-1.2.6-1.6,1.3-.3.6-.4,1.3-.2,2,.2.7.6,1.2,1.3,1.6.6.3,1.2.4,1.9.3,0,0,.1,0,.2,0,2.4-.7,5.3-1.4,8.5-2.2,9.3-2.3,20.9-5.1,32.4-10.5,19.6-9.3,32.1-22.9,38.2-41.7,1.8-5.6,2.7-10.5,2.6-14.6,0-4.1-1-7.5-2.8-10.2-1.5-2.1-3.3-3.1-5.3-3.8,8.1-21,10.6-40.1,7.4-56.7,0-.5-.2-.9-.3-1.4,1.5,1.6,2.9,3.3,3.9,4.5h.1c.3.5.6.9.8,1.2,1,1.1,2.7,1.3,3.8.4.6-.5.9-1.1,1-1.8,0-.7-.2-1.4-.6-2ZM68.5,73.9c-2.2,5-10.3,15.3-16.9,19.2-1.2.7-2.3,1.2-3.2,1.3-.8.1-1.1-.1-1.2-.2-.3-.2-.2-.9-.2-1.3.2-1.2.8-2.7,1.8-4.4,3-5.2,8.9-11.2,14.3-14.7,2.1-1.4,4.1-2.2,5.7-2.6.3,0,.7-.1,1-.2-.4,1-.8,1.9-1.3,2.9Z"/>
</svg>