<svg width="25" height="25" viewBox="0 0 25 25" fill="none" xmlns="http://www.w3.org/2000/svg">
<g id="whatsapp 1">
<g id="Group">
<g id="Group_2">
<path id="Vector" d="M12.5 1.65942C6.41267 1.65942 1.46003 6.61206 1.46003 12.6994C1.46003 14.6002 1.95107 16.4693 2.88227 18.1186L1.47779 23.1298C1.43171 23.2945 1.47635 23.4711 1.59539 23.5935C1.68707 23.6881 1.81187 23.7394 1.94003 23.7394C1.97843 23.7394 2.01731 23.7346 2.05523 23.7255L7.28531 22.43C8.88227 23.2873 10.6808 23.7394 12.5 23.7394C18.5874 23.7394 23.54 18.7868 23.54 12.6994C23.54 6.61206 18.5874 1.65942 12.5 1.65942ZM18.0536 16.5951C17.8175 17.2489 16.6847 17.8455 16.1404 17.9257C15.6517 17.9972 15.0335 18.0279 14.3548 17.8148C13.9434 17.6852 13.4154 17.5133 12.7391 17.2249C9.89603 16.0124 8.03939 13.1857 7.89731 12.9989C7.75571 12.8122 6.74003 11.4817 6.74003 10.1045C6.74003 8.72742 7.47203 8.05014 7.73219 7.76982C7.99235 7.4895 8.29907 7.41942 8.48819 7.41942C8.67731 7.41942 8.86595 7.42182 9.03155 7.4295C9.20579 7.43814 9.43955 7.36374 9.66947 7.90998C9.90563 8.47062 10.4725 9.84774 10.5426 9.98838C10.6136 10.1285 10.6607 10.2922 10.5666 10.4789C10.4725 10.6657 10.4255 10.7823 10.2834 10.946C10.1413 11.1097 9.98579 11.3108 9.85811 11.4365C9.71603 11.5762 9.56867 11.7274 9.73379 12.0077C9.89891 12.2881 10.4677 13.2044 11.3106 13.9465C12.393 14.8997 13.3064 15.1954 13.5896 15.3356C13.8728 15.4757 14.0384 15.4522 14.2036 15.2655C14.3687 15.0783 14.912 14.4481 15.1007 14.1682C15.2893 13.8884 15.4784 13.9345 15.7386 14.0281C15.9988 14.1212 17.3922 14.798 17.6754 14.9381C17.9586 15.0783 18.1477 15.1484 18.2188 15.265C18.2898 15.3812 18.2898 15.9418 18.0536 16.5951Z" fill="white"/>
</g>
</g>
</g>
</svg>
