<svg width="80" height="13" viewBox="0 0 80 13" fill="none" xmlns="http://www.w3.org/2000/svg">
<path d="M2.03343 12.6267C1.05162 12.6267 0.469798 11.954 0.233434 10.7358C0.0697976 9.73583 -0.00292969 8.39037 -0.00292969 6.64492C-0.00292969 4.93583 0.0697976 3.59037 0.233434 2.57219C0.469798 1.42674 1.08798 0.77219 2.14252 0.77219C3.19707 0.77219 3.70616 1.29946 3.72434 2.24492C3.76071 2.73583 3.76071 3.44492 3.76071 3.82674C3.76071 4.19037 3.81525 4.40855 4.23343 4.42674C4.41525 4.42674 4.61525 4.42674 4.85162 4.42674C5.05162 4.42674 5.25162 4.42674 5.39707 4.42674C5.85162 4.40855 5.92434 4.19037 5.92434 3.82674C5.92434 3.39037 5.94252 2.69946 5.96071 2.24492C5.97889 1.29946 6.4698 0.77219 7.52434 0.77219C8.57889 0.77219 9.23343 1.42674 9.45162 2.57219C9.61525 3.59037 9.68798 4.93583 9.68798 6.64492C9.68798 8.39037 9.61525 9.73583 9.45162 10.7358C9.23343 11.9358 8.63343 12.6267 7.65162 12.6267C6.52434 12.6267 5.97889 11.8995 5.96071 10.6813C5.94252 10.0449 5.92434 9.09946 5.92434 8.39037C5.92434 8.00855 5.85162 7.80855 5.41525 7.79037C5.23343 7.79037 5.05162 7.79037 4.85162 7.79037C4.61525 7.79037 4.39707 7.79037 4.21525 7.79037C3.81525 7.80855 3.76071 8.00855 3.76071 8.39037C3.76071 9.08128 3.74253 10.0449 3.72434 10.6813C3.72434 11.9176 3.16071 12.6267 2.03343 12.6267Z" fill="#315D71"/>
<path d="M17.2856 12.6995C14.1765 12.6995 11.7037 10.3722 11.7037 6.59037C11.7037 2.82674 14.1583 0.699463 17.2856 0.699463C20.4128 0.699463 22.9401 2.80855 22.9401 6.57219C22.9401 10.354 20.3947 12.6995 17.2856 12.6995ZM17.3037 8.84492C18.4492 8.84492 19.231 7.93583 19.231 6.53583C19.231 5.15401 18.4128 4.35401 17.3037 4.35401C16.1947 4.35401 15.4128 5.15401 15.4128 6.53583C15.4128 7.93583 16.1583 8.84492 17.3037 8.84492Z" fill="#315D71"/>
<path d="M28.0047 12.6631C26.2593 12.6631 25.6956 12.0267 25.4411 11.3176C25.0956 10.1358 24.9502 8.13583 24.9502 6.77219C24.9502 5.55401 24.9866 3.99037 25.3138 2.40855C25.5684 1.2631 26.2047 0.754009 27.3684 0.754009C28.6956 0.754009 29.0775 1.60855 29.0775 3.33583C29.0775 4.51764 28.9866 7.28128 28.9866 8.02674C28.9866 8.64492 29.1684 8.79037 29.6047 8.79037H30.4775C31.0775 8.79037 31.8411 9.00855 31.8411 10.4086C31.8411 12.1358 30.7684 12.6631 28.0047 12.6631Z" fill="#315D71"/>
<path d="M35.4799 12.6449C33.8981 12.6449 33.4799 11.5904 33.4799 9.97219C33.4799 8.71765 33.789 6.84492 34.2617 5.15401C35.1344 2.04492 36.2617 0.699463 38.4981 0.699463C40.7344 0.699463 41.8435 2.08128 42.6799 5.11765C43.1708 6.84492 43.4799 8.75401 43.4799 9.97219C43.4799 11.5904 43.1162 12.6449 41.5708 12.6449C40.2799 12.6449 39.9526 12.0813 39.789 11.3358C39.6072 10.4995 39.5526 10.1904 39.4253 10.0086C39.3162 9.80855 39.2253 9.73583 38.4799 9.73583C37.7526 9.73583 37.6253 9.82674 37.5162 10.0449C37.389 10.2813 37.3526 10.5176 37.1708 11.3176C36.989 12.0813 36.7162 12.6449 35.4799 12.6449ZM38.5162 6.8631C38.7162 6.8631 38.8981 6.8631 39.0435 6.8631C39.389 6.84492 39.4799 6.75401 39.4799 6.44492C39.4799 6.13583 39.3708 5.75401 39.2435 5.31764C38.9526 4.29946 38.7708 4.08128 38.4799 4.08128C38.189 4.08128 38.0072 4.29946 37.7344 5.29946C37.6253 5.69946 37.4981 6.13583 37.4981 6.44492C37.4981 6.75401 37.6072 6.84492 37.9526 6.8631C38.1526 6.8631 38.3162 6.8631 38.5162 6.8631Z" fill="#315D71"/>
<path d="M50.2441 12.6631C47.0623 12.6631 46.2259 12.2813 45.9168 10.9904C45.6441 9.97219 45.5532 8.55401 45.5532 6.64492C45.5532 4.89946 45.6623 3.51764 45.8986 2.49946C46.2259 1.19037 47.0259 0.735827 49.9895 0.735827C53.6804 0.735827 54.8441 2.20855 54.8441 3.84492C54.8441 5.0631 54.4623 5.75401 53.6441 6.22674C53.3895 6.39037 53.2623 6.4631 53.2623 6.59037C53.2623 6.71764 53.3532 6.77219 53.6441 6.8631C54.735 7.28128 55.2804 8.00855 55.2804 9.29946C55.2804 11.0267 53.8441 12.6631 50.2441 12.6631ZM50.0623 9.99037C51.0441 9.99037 51.6804 9.59037 51.6804 8.80855C51.6804 8.09946 51.0441 7.71765 49.6259 7.71765C48.9714 7.71765 48.8623 7.82674 48.8623 8.31765C48.8623 8.62674 48.8623 8.89946 48.8804 9.20855C48.8986 9.88128 49.0623 9.99037 50.0623 9.99037ZM49.6259 5.55401C50.8077 5.55401 51.4441 5.09946 51.4441 4.53583C51.4441 3.82674 50.935 3.51764 49.9532 3.51764C49.0986 3.51764 48.935 3.62674 48.9168 4.20855C48.8986 4.42674 48.8804 4.6631 48.8804 4.93583C48.8804 5.42674 49.0259 5.55401 49.6259 5.55401Z" fill="#315D71"/>
<path d="M62.6109 12.6995C59.5018 12.6995 57.029 10.3722 57.029 6.59037C57.029 2.82674 59.4836 0.699463 62.6109 0.699463C65.7381 0.699463 68.2654 2.80855 68.2654 6.57219C68.2654 10.354 65.7199 12.6995 62.6109 12.6995ZM62.629 8.84492C63.7745 8.84492 64.5563 7.93583 64.5563 6.53583C64.5563 5.15401 63.7381 4.35401 62.629 4.35401C61.5199 4.35401 60.7381 5.15401 60.7381 6.53583C60.7381 7.93583 61.4836 8.84492 62.629 8.84492Z" fill="#315D71"/>
<path d="M74.9664 12.6631C71.7846 12.6631 70.9482 12.2813 70.6391 10.9904C70.3664 9.97219 70.2755 8.55401 70.2755 6.64492C70.2755 4.89946 70.3846 3.51764 70.6209 2.49946C70.9482 1.19037 71.7482 0.735827 74.7118 0.735827C78.4027 0.735827 79.5664 2.20855 79.5664 3.84492C79.5664 5.0631 79.1846 5.75401 78.3664 6.22674C78.1118 6.39037 77.9846 6.4631 77.9846 6.59037C77.9846 6.71764 78.0755 6.77219 78.3664 6.8631C79.4573 7.28128 80.0027 8.00855 80.0027 9.29946C80.0027 11.0267 78.5664 12.6631 74.9664 12.6631ZM74.7846 9.99037C75.7664 9.99037 76.4027 9.59037 76.4027 8.80855C76.4027 8.09946 75.7664 7.71765 74.3482 7.71765C73.6937 7.71765 73.5846 7.82674 73.5846 8.31765C73.5846 8.62674 73.5846 8.89946 73.6028 9.20855C73.6209 9.88128 73.7846 9.99037 74.7846 9.99037ZM74.3482 5.55401C75.53 5.55401 76.1664 5.09946 76.1664 4.53583C76.1664 3.82674 75.6573 3.51764 74.6755 3.51764C73.8209 3.51764 73.6573 3.62674 73.6391 4.20855C73.6209 4.42674 73.6028 4.6631 73.6028 4.93583C73.6028 5.42674 73.7482 5.55401 74.3482 5.55401Z" fill="#315D71"/>
</svg>
