<svg width="81" height="13" viewBox="0 0 81 13" fill="none" xmlns="http://www.w3.org/2000/svg">
<path d="M2.99632 12.2866C2.01451 12.2866 1.43269 11.6139 1.19632 10.3957C1.03269 9.39574 0.959961 8.05028 0.959961 6.30483C0.959961 4.59574 1.03269 3.25028 1.19632 2.2321C1.43269 1.08665 2.05087 0.432102 3.10542 0.432102C4.15996 0.432102 4.66905 0.959375 4.68723 1.90483C4.7236 2.39574 4.7236 3.10483 4.7236 3.48665C4.7236 3.85028 4.77814 4.06847 5.19632 4.08665C5.37814 4.08665 5.57814 4.08665 5.81451 4.08665C6.01451 4.08665 6.21451 4.08665 6.35996 4.08665C6.81451 4.06847 6.88723 3.85028 6.88723 3.48665C6.88723 3.05028 6.90542 2.35938 6.9236 1.90483C6.94178 0.959375 7.43269 0.432102 8.48723 0.432102C9.54178 0.432102 10.1963 1.08665 10.4145 2.2321C10.5781 3.25028 10.6509 4.59574 10.6509 6.30483C10.6509 8.05028 10.5781 9.39574 10.4145 10.3957C10.1963 11.5957 9.59633 12.2866 8.61451 12.2866C7.48723 12.2866 6.94178 11.5594 6.9236 10.3412C6.90542 9.70483 6.88723 8.75937 6.88723 8.05028C6.88723 7.66847 6.81451 7.46847 6.37814 7.45028C6.19632 7.45028 6.01451 7.45028 5.81451 7.45028C5.57814 7.45028 5.35996 7.45028 5.17814 7.45028C4.77814 7.46847 4.7236 7.66847 4.7236 8.05028C4.7236 8.74119 4.70542 9.70483 4.68723 10.3412C4.68723 11.5776 4.1236 12.2866 2.99632 12.2866Z" fill="#003B62"/>
<path d="M18.2485 12.3594C15.1394 12.3594 12.6666 10.0321 12.6666 6.25028C12.6666 2.48665 15.1212 0.359375 18.2485 0.359375C21.3757 0.359375 23.903 2.46847 23.903 6.2321C23.903 10.0139 21.3575 12.3594 18.2485 12.3594ZM18.2666 8.50483C19.4121 8.50483 20.1939 7.59574 20.1939 6.19574C20.1939 4.81392 19.3757 4.01392 18.2666 4.01392C17.1575 4.01392 16.3757 4.81392 16.3757 6.19574C16.3757 7.59574 17.1212 8.50483 18.2666 8.50483Z" fill="#003B62"/>
<path d="M28.9676 12.323C27.2222 12.323 26.6585 11.6866 26.404 10.9776C26.0585 9.79574 25.9131 7.79574 25.9131 6.4321C25.9131 5.21392 25.9494 3.65028 26.2767 2.06847C26.5313 0.923012 27.1676 0.413921 28.3313 0.413921C29.6585 0.413921 30.0404 1.26847 30.0404 2.99574C30.0404 4.17756 29.9494 6.94119 29.9494 7.68665C29.9494 8.30483 30.1313 8.45028 30.5676 8.45028H31.4404C32.0404 8.45028 32.804 8.66847 32.804 10.0685C32.804 11.7957 31.7313 12.323 28.9676 12.323Z" fill="#003B62"/>
<path d="M36.4428 12.3048C34.861 12.3048 34.4428 11.2503 34.4428 9.6321C34.4428 8.37756 34.7519 6.50483 35.2246 4.81392C36.0973 1.70483 37.2246 0.359375 39.461 0.359375C41.6973 0.359375 42.8064 1.74119 43.6428 4.77756C44.1337 6.50483 44.4428 8.41392 44.4428 9.6321C44.4428 11.2503 44.0791 12.3048 42.5337 12.3048C41.2428 12.3048 40.9155 11.7412 40.7519 10.9957C40.57 10.1594 40.5155 9.85028 40.3882 9.66847C40.2791 9.46847 40.1882 9.39574 39.4428 9.39574C38.7155 9.39574 38.5882 9.48665 38.4791 9.70483C38.3519 9.94119 38.3155 10.1776 38.1337 10.9776C37.9519 11.7412 37.6791 12.3048 36.4428 12.3048ZM39.4791 6.52301C39.6791 6.52301 39.861 6.52301 40.0064 6.52301C40.3519 6.50483 40.4428 6.41392 40.4428 6.10483C40.4428 5.79574 40.3337 5.41392 40.2064 4.97756C39.9155 3.95937 39.7337 3.74119 39.4428 3.74119C39.1519 3.74119 38.97 3.95938 38.6973 4.95938C38.5882 5.35937 38.461 5.79574 38.461 6.10483C38.461 6.41392 38.57 6.50483 38.9155 6.52301C39.1155 6.52301 39.2791 6.52301 39.4791 6.52301Z" fill="#003B62"/>
<path d="M51.207 12.323C48.0252 12.323 47.1888 11.9412 46.8797 10.6503C46.607 9.6321 46.5161 8.21392 46.5161 6.30483C46.5161 4.55937 46.6252 3.17756 46.8615 2.15938C47.1888 0.850284 47.9888 0.395739 50.9524 0.395739C54.6433 0.395739 55.807 1.86847 55.807 3.50483C55.807 4.72301 55.4252 5.41392 54.607 5.88665C54.3524 6.05028 54.2252 6.12301 54.2252 6.25028C54.2252 6.37756 54.3161 6.4321 54.607 6.52301C55.6979 6.94119 56.2433 7.66847 56.2433 8.95938C56.2433 10.6866 54.807 12.323 51.207 12.323ZM51.0252 9.65028C52.007 9.65028 52.6433 9.25028 52.6433 8.46847C52.6433 7.75937 52.007 7.37756 50.5888 7.37756C49.9342 7.37756 49.8252 7.48665 49.8252 7.97756C49.8252 8.28665 49.8252 8.55938 49.8433 8.86847C49.8615 9.54119 50.0252 9.65028 51.0252 9.65028ZM50.5888 5.21392C51.7706 5.21392 52.407 4.75937 52.407 4.19574C52.407 3.48665 51.8979 3.17756 50.9161 3.17756C50.0615 3.17756 49.8979 3.28665 49.8797 3.86847C49.8615 4.08665 49.8433 4.32301 49.8433 4.59574C49.8433 5.08665 49.9888 5.21392 50.5888 5.21392Z" fill="#003B62"/>
<path d="M63.5737 12.3594C60.4646 12.3594 57.9919 10.0321 57.9919 6.25028C57.9919 2.48665 60.4465 0.359375 63.5737 0.359375C66.701 0.359375 69.2283 2.46847 69.2283 6.2321C69.2283 10.0139 66.6828 12.3594 63.5737 12.3594ZM63.5919 8.50483C64.7374 8.50483 65.5192 7.59574 65.5192 6.19574C65.5192 4.81392 64.701 4.01392 63.5919 4.01392C62.4828 4.01392 61.701 4.81392 61.701 6.19574C61.701 7.59574 62.4465 8.50483 63.5919 8.50483Z" fill="#003B62"/>
<path d="M75.9293 12.323C72.7475 12.323 71.9111 11.9412 71.602 10.6503C71.3293 9.6321 71.2384 8.21392 71.2384 6.30483C71.2384 4.55937 71.3475 3.17756 71.5838 2.15938C71.9111 0.850284 72.7111 0.395739 75.6747 0.395739C79.3656 0.395739 80.5293 1.86847 80.5293 3.50483C80.5293 4.72301 80.1475 5.41392 79.3293 5.88665C79.0747 6.05028 78.9475 6.12301 78.9475 6.25028C78.9475 6.37756 79.0384 6.4321 79.3293 6.52301C80.4202 6.94119 80.9656 7.66847 80.9656 8.95938C80.9656 10.6866 79.5293 12.323 75.9293 12.323ZM75.7475 9.65028C76.7293 9.65028 77.3656 9.25028 77.3656 8.46847C77.3656 7.75937 76.7293 7.37756 75.3111 7.37756C74.6566 7.37756 74.5475 7.48665 74.5475 7.97756C74.5475 8.28665 74.5475 8.55938 74.5656 8.86847C74.5838 9.54119 74.7475 9.65028 75.7475 9.65028ZM75.3111 5.21392C76.4929 5.21392 77.1293 4.75937 77.1293 4.19574C77.1293 3.48665 76.6202 3.17756 75.6384 3.17756C74.7838 3.17756 74.6202 3.28665 74.602 3.86847C74.5838 4.08665 74.5656 4.32301 74.5656 4.59574C74.5656 5.08665 74.7111 5.21392 75.3111 5.21392Z" fill="#003B62"/>
</svg>
