<?xml version="1.0" encoding="UTF-8"?>
<svg id="Layer_1" xmlns="http://www.w3.org/2000/svg" version="1.1" viewBox="0 0 1501.7 337">
  <!-- Generator: Adobe Illustrator 29.1.0, SVG Export Plug-In . SVG Version: 2.1.0 Build 142)  -->
  <defs>
    <style>
      .st0 {
        fill: none;
      }

      .st1 {
        fill: #315d71;
      }
    </style>
  </defs>
  <g>
    <path class="st1" d="M359.8,259.8c-14.4,0-22.9-9.9-26.4-27.7-2.4-14.6-3.5-34.4-3.5-59.9s1.1-44.7,3.5-59.6c3.5-16.8,12.5-26.4,28-26.4s22.9,7.7,23.2,21.6c.5,7.2.5,17.6.5,23.2s.8,8.5,6.9,8.8h17c6.7-.3,7.7-3.5,7.7-8.8s.3-16.5.5-23.2c.3-13.8,7.5-21.6,22.9-21.6s25,9.6,28.2,26.4c2.4,14.9,3.5,34.6,3.5,59.6s-1.1,45.3-3.5,59.9c-3.2,17.6-12,27.7-26.4,27.7s-24.5-10.7-24.8-28.5c-.3-9.3-.5-23.2-.5-33.6s-1.1-8.5-7.5-8.8h-17.6c-5.9.3-6.7,3.2-6.7,8.8,0,10.1-.3,24.2-.5,33.6,0,18.1-8.3,28.5-24.8,28.5Z"/>
    <path class="st1" d="M583.2,260.9c-45.5,0-81.7-34.1-81.7-89.5s35.9-86.3,81.7-86.3,82.8,30.9,82.8,86-37.3,89.7-82.8,89.7ZM583.5,204.4c16.8,0,28.2-13.3,28.2-33.8s-12-32-28.2-32-27.7,11.7-27.7,32,10.9,33.8,27.7,33.8Z"/>
    <path class="st1" d="M740.2,260.4c-25.6,0-33.8-9.3-37.5-19.7-5.1-17.3-7.2-46.6-7.2-66.6s.5-40.7,5.3-63.9c3.7-16.8,13-24.2,30.1-24.2s25,12.5,25,37.8-1.3,57.8-1.3,68.7,2.7,11.2,9.1,11.2h12.8c8.8,0,20,3.2,20,23.7s-15.7,33-56.2,33Z"/>
    <path class="st1" d="M849.7,260.1c-23.2,0-29.3-15.4-29.3-39.1s4.5-45.8,11.5-70.6c12.8-45.5,29.3-65.2,62-65.2s49,20.2,61.2,64.7c7.2,25.3,11.7,53.3,11.7,71.1s-5.3,39.1-28,39.1-23.7-8.3-26.1-19.2c-2.7-12.2-3.5-16.8-5.3-19.4-1.6-2.9-2.9-4-13.8-4s-12.5,1.3-14.1,4.5c-1.9,3.5-2.4,6.9-5.1,18.6-2.7,11.2-6.7,19.4-24.8,19.4ZM894.1,175.4h7.7c5.1-.3,6.4-1.6,6.4-6.1s-1.6-10.1-3.5-16.5c-4.3-14.9-6.9-18.1-11.2-18.1s-6.9,3.2-10.9,17.8c-1.6,5.9-3.5,12.2-3.5,16.8s1.6,5.9,6.7,6.1h8.3Z"/>
    <path class="st1" d="M1065.9,260.4c-46.6,0-58.8-5.6-63.4-24.5-4-14.9-5.3-35.7-5.3-63.6s1.6-45.8,5.1-60.7c4.8-19.2,16.5-25.8,59.9-25.8s71.1,21.6,71.1,45.5-5.6,28-17.6,34.9c-3.7,2.4-5.6,3.5-5.6,5.3s1.3,2.7,5.6,4c16,6.1,24,16.8,24,35.7s-21,49.3-73.8,49.3ZM1063.2,221.2c14.4,0,23.7-5.9,23.7-17.3s-9.3-16-30.1-16-11.2,1.6-11.2,8.8,0,8.5.3,13c.3,9.9,2.7,11.5,17.3,11.5ZM1056.8,156.2c17.3,0,26.6-6.7,26.6-14.9s-7.5-14.9-21.8-14.9-14.9,1.6-15.2,10.1c-.3,3.2-.5,6.7-.5,10.7,0,7.2,2.1,9.1,10.9,9.1Z"/>
    <path class="st1" d="M1247,260.9c-45.5,0-81.8-34.1-81.8-89.5s36-86.3,81.8-86.3,82.8,30.9,82.8,86-37.3,89.7-82.8,89.7ZM1247.3,204.4c16.8,0,28.2-13.3,28.2-33.8s-12-32-28.2-32-27.7,11.7-27.7,32,10.9,33.8,27.7,33.8Z"/>
    <path class="st1" d="M1428,260.4c-46.6,0-58.9-5.6-63.4-24.5-4-14.9-5.3-35.7-5.3-63.6s1.6-45.8,5.1-60.7c4.8-19.2,16.5-25.8,59.9-25.8s71.1,21.6,71.1,45.5-5.6,28-17.6,34.9c-3.7,2.4-5.6,3.5-5.6,5.3s1.3,2.7,5.6,4c16,6.1,24,16.8,24,35.7s-21,49.3-73.8,49.3ZM1425.3,221.2c14.4,0,23.7-5.9,23.7-17.3s-9.3-16-30.1-16-11.2,1.6-11.2,8.8,0,8.5.3,13c.3,9.9,2.7,11.5,17.3,11.5ZM1418.9,156.2c17.3,0,26.6-6.7,26.6-14.9s-7.5-14.9-21.8-14.9-14.9,1.6-15.2,10.1c-.3,3.2-.5,6.7-.5,10.7,0,7.2,2.1,9.1,10.9,9.1Z"/>
  </g>
  <path class="st1" d="M223.5,99.7c3.4,7.6,5.2,17,6,25.5h0c1.4,14.6,1.9,44.1-3.5,58.9,11-5.3,19.7-16.9,20.7-29,.5-7.1.5-18.4,0-25.5-.9-13.5-10.3-26.3-23.3-29.8Z"/>
  <path class="st1" d="M21.7,184.3c-9-3.8-17.1-12.8-19.9-21.7-2.2-6.9-2-25.4-1.4-33.1.9-12.9,10-26.2,22.8-29.6-3.5,9.2-5.4,25.7-5.8,35.4-.5,12.5-.5,36.7,4.4,49Z"/>
  <path class="st1" d="M191,266c-.7-.5-3.2,3.3-3.8,4-19.7,21.5-51.3,31.1-80,25.3-17.3-3.5-34.4-13.4-46-26.7-.7-.1-1.4,1.5-1.9,2-5.5,5.8-13.5,14.5-21.3,16.5-9.8,2.4-19.6-2-24.2-10.9-5.6-10.7-1.1-22.4,4.4-31.9,7.5-12.8,18.2-23.5,32.7-27.8.7,0,6.7,3.8,8,4.4,25,12.8,57,15.1,84.7,12.4,18.8-1.8,37.5-7,53.6-16.9,2.7,1.3,5.7,1.9,8.5,3.1,15.1,6.2,27,20.5,32.9,35.4,4.6,11.6,2.4,25.5-10,31-16,7.1-27.6-8.8-37.1-18.8-.4-.4-.5-1-.5-1.1h0Z"/>
  <path class="st1" d="M160.8,92.7c-.7,0-1.8.3-2.2-.4.8.1,1.5.2,2.2.4Z"/>
  <path class="st1" d="M113.9,148.9c5.6.4,12.5-.7,17.9,0,6,.7,4.2,7.9,2.9,11.9-3.7,10.3-18.4,10.7-22.5.6-1.6-4-3.3-10.3,1.8-12.4Z"/>
  <path class="st1" d="M85.3,133.9c-.5-.5-1.3-3.4-2.6-4.8-4.1-4.5-10.9-4.1-14.3.8-1.1,1.6-1.8,5.8-4.4,4.3-1.7-1,1-6.9,1.9-8.2,5.2-8.2,16-7.6,20.6.9.7,1.3,3.1,6.8,1,7.5-.5.2-1.8,0-2.2-.4h0Z"/>
  <path class="st1" d="M170.4,120.1c4.5-.1,8.4,2.8,10.6,6.5.9,1.6,3.9,7.8.5,7.8-1.8,0-2-2.4-2.8-3.8-3.2-5.3-10.3-6.4-14.6-1.8-1.4,1.5-2.5,5.6-4.2,5.6-3.9,0,.4-8,1.6-9.6,2-2.6,5.5-4.7,8.9-4.8Z"/>
  <path class="st1" d="M129.7,65.7c.3,0,.6,0,.8-.1-2.3.2-4.8.3-7.3.4,2.4,0,4.7,0,6.5-.2h0Z"/>
  <path class="st0" d="M161,92.7h-.3c-.6-.2-1.2-.3-1.8-.4-10-1.5-23.7-2.3-37.4-2.3-14.6,0-29.3,1-39.8,3.3-25.6,5.6-38.6,28.2-36,53.5,2.9,28.6,29.2,33.7,53.1,33.7.4,0,.9,0,1.3,0,6.5,0,12.9,0,19.4,0,8.1,0,16.2,0,24.2,0,1.2,0,2.3,0,3.5,0,19,0,41.1-1.6,50.5-20.9h0c7.9-16.2,2.1-41.5-10.1-54.3-6.7-7-17.2-10.9-26.6-12.6Z"/>
  <path class="st1" d="M225.1,125.2h0c-.9-8.8-2.7-18.7-6.5-26.4-11.6-24.1-38-40.7-63.7-46.3l1.2,2.5c.9,1.8.3,4.2-1.7,5.2-3.6,1.8-13.3,5.5-30.4,5.5s-27.7-4-31.6-5.9c-2.1-1-2.7-3.5-1.7-5.3l1-2c-20,5-39.1,15.2-52.7,30.9-3.6,4.1-8.9,10.9-11,15.8-3.7,9-5.7,26.2-6.1,36.1-.5,13.1-.4,38.9,5.1,50.6,3.6,7.7,18.4,23.4,26.2,26.5,5.8,2.3,14.3,3.9,20.5,5,27.9,4.9,59.9,5.2,88,1.9,8.7-1,30.6-4.1,37.4-8.6,6-4,18.9-17.9,21.8-24.4,6.2-13.9,5.8-45.7,4.3-61ZM197.7,159.6h0c-9.4,19.3-31.5,20.9-50.5,20.9-1.2,0-2.4,0-3.5,0-8.1,0-16.1,0-24.2,0-6.5,0-12.9,0-19.4,0-.4,0-.9,0-1.3,0-23.8,0-50.2-5.1-53.1-33.7-2.5-25.3,10.4-48,36-53.5,10.5-2.3,25.2-3.3,39.8-3.3,13.7,0,27.3.8,37.4,2.3.6,0,1.2.2,1.8.3h.3c9.4,1.7,19.9,5.6,26.6,12.6,12.2,12.8,18,38.1,10.1,54.3Z"/>
  <path class="st1" d="M151.8,56.4L123.9,0l-29.1,56c3.8,1.7,13.5,5.2,29.1,5.2s24.3-3.2,27.9-4.8Z"/>
</svg>