<svg width="89" height="14" viewBox="0 0 89 14" fill="none" xmlns="http://www.w3.org/2000/svg">
<path d="M2.79957 13.8195C1.71957 13.8195 1.07957 13.0795 0.81957 11.7395C0.63957 10.6395 0.55957 9.15946 0.55957 7.23946C0.55957 5.35946 0.63957 3.87946 0.81957 2.75946C1.07957 1.49946 1.75957 0.779463 2.91957 0.779463C4.07957 0.779463 4.63957 1.35946 4.65957 2.39946C4.69957 2.93946 4.69957 3.71946 4.69957 4.13946C4.69957 4.53946 4.75957 4.77946 5.21957 4.79946C5.41957 4.79946 5.63957 4.79946 5.89957 4.79946C6.11957 4.79946 6.33957 4.79946 6.49957 4.79946C6.99957 4.77946 7.07957 4.53946 7.07957 4.13946C7.07957 3.65946 7.09957 2.89946 7.11957 2.39946C7.13957 1.35946 7.67957 0.779463 8.83957 0.779463C9.99957 0.779463 10.7196 1.49946 10.9596 2.75946C11.1396 3.87946 11.2196 5.35946 11.2196 7.23946C11.2196 9.15946 11.1396 10.6395 10.9596 11.7395C10.7196 13.0595 10.0596 13.8195 8.97957 13.8195C7.73957 13.8195 7.13957 13.0195 7.11957 11.6795C7.09957 10.9795 7.07957 9.93946 7.07957 9.15946C7.07957 8.73946 6.99957 8.51946 6.51957 8.49946C6.31957 8.49946 6.11957 8.49946 5.89957 8.49946C5.63957 8.49946 5.39957 8.49946 5.19957 8.49946C4.75957 8.51946 4.69957 8.73946 4.69957 9.15946C4.69957 9.91946 4.67957 10.9795 4.65957 11.6795C4.65957 13.0395 4.03957 13.8195 2.79957 13.8195Z" fill="#1A1A1A"/>
<path d="M19.5769 13.8995C16.1569 13.8995 13.4369 11.3395 13.4369 7.17946C13.4369 3.03946 16.1369 0.699463 19.5769 0.699463C23.0169 0.699463 25.7969 3.01946 25.7969 7.15946C25.7969 11.3195 22.9969 13.8995 19.5769 13.8995ZM19.5969 9.65946C20.8569 9.65946 21.7169 8.65946 21.7169 7.11946C21.7169 5.59946 20.8169 4.71946 19.5969 4.71946C18.3769 4.71946 17.5169 5.59946 17.5169 7.11946C17.5169 8.65946 18.3369 9.65946 19.5969 9.65946Z" fill="#1A1A1A"/>
<path d="M31.368 13.8595C29.448 13.8595 28.828 13.1595 28.548 12.3795C28.168 11.0795 28.008 8.87946 28.008 7.37946C28.008 6.03946 28.048 4.31946 28.408 2.57946C28.688 1.31946 29.388 0.759463 30.668 0.759463C32.128 0.759463 32.548 1.69946 32.548 3.59946C32.548 4.89946 32.448 7.93946 32.448 8.75946C32.448 9.43946 32.648 9.59946 33.128 9.59946H34.088C34.748 9.59946 35.588 9.83946 35.588 11.3795C35.588 13.2795 34.408 13.8595 31.368 13.8595Z" fill="#1A1A1A"/>
<path d="M39.5907 13.8395C37.8507 13.8395 37.3907 12.6795 37.3907 10.8995C37.3907 9.51946 37.7307 7.45946 38.2507 5.59946C39.2107 2.17946 40.4507 0.699463 42.9107 0.699463C45.3707 0.699463 46.5907 2.21946 47.5107 5.55946C48.0507 7.45946 48.3907 9.55946 48.3907 10.8995C48.3907 12.6795 47.9907 13.8395 46.2907 13.8395C44.8707 13.8395 44.5107 13.2195 44.3307 12.3995C44.1307 11.4795 44.0707 11.1395 43.9307 10.9395C43.8107 10.7195 43.7107 10.6395 42.8907 10.6395C42.0907 10.6395 41.9507 10.7395 41.8307 10.9795C41.6907 11.2395 41.6507 11.4995 41.4507 12.3795C41.2507 13.2195 40.9507 13.8395 39.5907 13.8395ZM42.9307 7.47946C43.1507 7.47946 43.3507 7.47946 43.5107 7.47946C43.8907 7.45946 43.9907 7.35946 43.9907 7.01946C43.9907 6.67946 43.8707 6.25946 43.7307 5.77946C43.4107 4.65946 43.2107 4.41946 42.8907 4.41946C42.5707 4.41946 42.3707 4.65946 42.0707 5.75946C41.9507 6.19946 41.8107 6.67946 41.8107 7.01946C41.8107 7.35946 41.9307 7.45946 42.3107 7.47946C42.5307 7.47946 42.7107 7.47946 42.9307 7.47946Z" fill="#1A1A1A"/>
<path d="M55.8313 13.8595C52.3313 13.8595 51.4113 13.4395 51.0713 12.0195C50.7713 10.8995 50.6713 9.33946 50.6713 7.23946C50.6713 5.31946 50.7913 3.79946 51.0513 2.67946C51.4113 1.23946 52.2913 0.739464 55.5513 0.739464C59.6113 0.739464 60.8913 2.35946 60.8913 4.15946C60.8913 5.49946 60.4713 6.25946 59.5713 6.77946C59.2913 6.95946 59.1513 7.03946 59.1513 7.17946C59.1513 7.31946 59.2513 7.37946 59.5713 7.47946C60.7713 7.93946 61.3713 8.73946 61.3713 10.1595C61.3713 12.0595 59.7913 13.8595 55.8313 13.8595ZM55.6313 10.9195C56.7113 10.9195 57.4113 10.4795 57.4113 9.61946C57.4113 8.83946 56.7113 8.41946 55.1513 8.41946C54.4313 8.41946 54.3113 8.53946 54.3113 9.07946C54.3113 9.41946 54.3113 9.71946 54.3313 10.0595C54.3513 10.7995 54.5313 10.9195 55.6313 10.9195ZM55.1513 6.03946C56.4513 6.03946 57.1513 5.53946 57.1513 4.91946C57.1513 4.13946 56.5913 3.79946 55.5113 3.79946C54.5713 3.79946 54.3913 3.91946 54.3713 4.55946C54.3513 4.79946 54.3313 5.05946 54.3313 5.35946C54.3313 5.89946 54.4913 6.03946 55.1513 6.03946Z" fill="#1A1A1A"/>
<path d="M69.4347 13.8995C66.0147 13.8995 63.2947 11.3395 63.2947 7.17946C63.2947 3.03946 65.9947 0.699463 69.4347 0.699463C72.8747 0.699463 75.6547 3.01946 75.6547 7.15946C75.6547 11.3195 72.8547 13.8995 69.4347 13.8995ZM69.4547 9.65946C70.7147 9.65946 71.5747 8.65946 71.5747 7.11946C71.5747 5.59946 70.6747 4.71946 69.4547 4.71946C68.2347 4.71946 67.3747 5.59946 67.3747 7.11946C67.3747 8.65946 68.1947 9.65946 69.4547 9.65946Z" fill="#1A1A1A"/>
<path d="M83.0258 13.8595C79.5258 13.8595 78.6058 13.4395 78.2658 12.0195C77.9658 10.8995 77.8658 9.33946 77.8658 7.23946C77.8658 5.31946 77.9858 3.79946 78.2458 2.67946C78.6058 1.23946 79.4858 0.739464 82.7458 0.739464C86.8058 0.739464 88.0858 2.35946 88.0858 4.15946C88.0858 5.49946 87.6658 6.25946 86.7658 6.77946C86.4858 6.95946 86.3458 7.03946 86.3458 7.17946C86.3458 7.31946 86.4458 7.37946 86.7658 7.47946C87.9658 7.93946 88.5658 8.73946 88.5658 10.1595C88.5658 12.0595 86.9858 13.8595 83.0258 13.8595ZM82.8258 10.9195C83.9058 10.9195 84.6058 10.4795 84.6058 9.61946C84.6058 8.83946 83.9058 8.41946 82.3458 8.41946C81.6258 8.41946 81.5058 8.53946 81.5058 9.07946C81.5058 9.41946 81.5058 9.71946 81.5258 10.0595C81.5458 10.7995 81.7258 10.9195 82.8258 10.9195ZM82.3458 6.03946C83.6458 6.03946 84.3458 5.53946 84.3458 4.91946C84.3458 4.13946 83.7858 3.79946 82.7058 3.79946C81.7658 3.79946 81.5858 3.91946 81.5658 4.55946C81.5458 4.79946 81.5258 5.05946 81.5258 5.35946C81.5258 5.89946 81.6858 6.03946 82.3458 6.03946Z" fill="#1A1A1A"/>
</svg>
