<svg width="80" height="12" viewBox="0 0 80 12" fill="none" xmlns="http://www.w3.org/2000/svg">
<path d="M2.03636 11.9273C1.05455 11.9273 0.472727 11.2545 0.236364 10.0364C0.0727273 9.03636 0 7.69091 0 5.94545C0 4.23636 0.0727273 2.89091 0.236364 1.87273C0.472727 0.727273 1.09091 0.0727274 2.14545 0.0727274C3.2 0.0727274 3.70909 0.6 3.72727 1.54546C3.76364 2.03636 3.76364 2.74545 3.76364 3.12727C3.76364 3.49091 3.81818 3.70909 4.23636 3.72727C4.41818 3.72727 4.61818 3.72727 4.85455 3.72727C5.05455 3.72727 5.25455 3.72727 5.4 3.72727C5.85455 3.70909 5.92727 3.49091 5.92727 3.12727C5.92727 2.69091 5.94545 2 5.96364 1.54546C5.98182 0.6 6.47273 0.0727274 7.52727 0.0727274C8.58182 0.0727274 9.23636 0.727273 9.45455 1.87273C9.61818 2.89091 9.69091 4.23636 9.69091 5.94545C9.69091 7.69091 9.61818 9.03636 9.45455 10.0364C9.23636 11.2364 8.63636 11.9273 7.65455 11.9273C6.52727 11.9273 5.98182 11.2 5.96364 9.98182C5.94545 9.34545 5.92727 8.4 5.92727 7.69091C5.92727 7.30909 5.85455 7.10909 5.41818 7.09091C5.23636 7.09091 5.05455 7.09091 4.85455 7.09091C4.61818 7.09091 4.4 7.09091 4.21818 7.09091C3.81818 7.10909 3.76364 7.30909 3.76364 7.69091C3.76364 8.38182 3.74545 9.34545 3.72727 9.98182C3.72727 11.2182 3.16364 11.9273 2.03636 11.9273Z" fill="#1B4D7E" fill-opacity="0.8"/>
<path d="M17.2885 12C14.1794 12 11.7067 9.67273 11.7067 5.89091C11.7067 2.12727 14.1612 0 17.2885 0C20.4158 0 22.943 2.10909 22.943 5.87273C22.943 9.65455 20.3976 12 17.2885 12ZM17.3067 8.14546C18.4521 8.14546 19.2339 7.23636 19.2339 5.83636C19.2339 4.45455 18.4158 3.65455 17.3067 3.65455C16.1976 3.65455 15.4158 4.45455 15.4158 5.83636C15.4158 7.23636 16.1612 8.14546 17.3067 8.14546Z" fill="#1B4D7E" fill-opacity="0.8"/>
<path d="M28.0077 11.9636C26.2622 11.9636 25.6986 11.3273 25.444 10.6182C25.0986 9.43636 24.9531 7.43636 24.9531 6.07273C24.9531 4.85455 24.9895 3.29091 25.3168 1.70909C25.5713 0.563637 26.2077 0.0545458 27.3713 0.0545458C28.6986 0.0545458 29.0804 0.909091 29.0804 2.63636C29.0804 3.81818 28.9895 6.58182 28.9895 7.32727C28.9895 7.94545 29.1713 8.09091 29.6077 8.09091H30.4804C31.0804 8.09091 31.844 8.30909 31.844 9.70909C31.844 11.4364 30.7713 11.9636 28.0077 11.9636Z" fill="#1B4D7E" fill-opacity="0.8"/>
<path d="M35.4828 11.9455C33.901 11.9455 33.4828 10.8909 33.4828 9.27273C33.4828 8.01818 33.7919 6.14545 34.2646 4.45455C35.1374 1.34545 36.2646 0 38.501 0C40.7374 0 41.8464 1.38182 42.6828 4.41818C43.1737 6.14545 43.4828 8.05455 43.4828 9.27273C43.4828 10.8909 43.1192 11.9455 41.5737 11.9455C40.2828 11.9455 39.9555 11.3818 39.7919 10.6364C39.6101 9.8 39.5555 9.49091 39.4283 9.30909C39.3192 9.10909 39.2283 9.03636 38.4828 9.03636C37.7555 9.03636 37.6283 9.12727 37.5192 9.34545C37.3919 9.58182 37.3555 9.81818 37.1737 10.6182C36.9919 11.3818 36.7192 11.9455 35.4828 11.9455ZM38.5192 6.16364C38.7192 6.16364 38.901 6.16364 39.0464 6.16364C39.3919 6.14545 39.4828 6.05455 39.4828 5.74545C39.4828 5.43636 39.3737 5.05455 39.2464 4.61818C38.9555 3.6 38.7737 3.38182 38.4828 3.38182C38.1919 3.38182 38.0101 3.6 37.7374 4.6C37.6283 5 37.501 5.43636 37.501 5.74545C37.501 6.05455 37.6101 6.14545 37.9555 6.16364C38.1555 6.16364 38.3192 6.16364 38.5192 6.16364Z" fill="#1B4D7E" fill-opacity="0.8"/>
<path d="M50.247 11.9636C47.0652 11.9636 46.2288 11.5818 45.9197 10.2909C45.647 9.27273 45.5561 7.85455 45.5561 5.94545C45.5561 4.2 45.6652 2.81818 45.9016 1.8C46.2288 0.490909 47.0288 0.0363643 49.9925 0.0363643C53.6834 0.0363643 54.847 1.50909 54.847 3.14545C54.847 4.36364 54.4652 5.05455 53.647 5.52727C53.3925 5.69091 53.2652 5.76364 53.2652 5.89091C53.2652 6.01818 53.3561 6.07273 53.647 6.16364C54.7379 6.58182 55.2834 7.30909 55.2834 8.6C55.2834 10.3273 53.847 11.9636 50.247 11.9636ZM50.0652 9.29091C51.047 9.29091 51.6834 8.89091 51.6834 8.10909C51.6834 7.4 51.047 7.01818 49.6288 7.01818C48.9743 7.01818 48.8652 7.12727 48.8652 7.61818C48.8652 7.92727 48.8652 8.2 48.8834 8.50909C48.9016 9.18182 49.0652 9.29091 50.0652 9.29091ZM49.6288 4.85455C50.8106 4.85455 51.447 4.4 51.447 3.83636C51.447 3.12727 50.9379 2.81818 49.9561 2.81818C49.1016 2.81818 48.9379 2.92727 48.9197 3.50909C48.9016 3.72727 48.8834 3.96364 48.8834 4.23636C48.8834 4.72727 49.0288 4.85455 49.6288 4.85455Z" fill="#1B4D7E" fill-opacity="0.8"/>
<path d="M62.6138 12C59.5047 12 57.032 9.67273 57.032 5.89091C57.032 2.12727 59.4865 0 62.6138 0C65.7411 0 68.2683 2.10909 68.2683 5.87273C68.2683 9.65455 65.7229 12 62.6138 12ZM62.632 8.14546C63.7774 8.14546 64.5592 7.23636 64.5592 5.83636C64.5592 4.45455 63.741 3.65455 62.632 3.65455C61.5229 3.65455 60.741 4.45455 60.741 5.83636C60.741 7.23636 61.4865 8.14546 62.632 8.14546Z" fill="#1B4D7E" fill-opacity="0.8"/>
<path d="M74.9693 11.9636C71.7875 11.9636 70.9511 11.5818 70.642 10.2909C70.3693 9.27273 70.2784 7.85455 70.2784 5.94545C70.2784 4.2 70.3875 2.81818 70.6239 1.8C70.9511 0.490909 71.7511 0.0363643 74.7148 0.0363643C78.4057 0.0363643 79.5693 1.50909 79.5693 3.14545C79.5693 4.36364 79.1875 5.05455 78.3693 5.52727C78.1148 5.69091 77.9875 5.76364 77.9875 5.89091C77.9875 6.01818 78.0784 6.07273 78.3693 6.16364C79.4602 6.58182 80.0057 7.30909 80.0057 8.6C80.0057 10.3273 78.5693 11.9636 74.9693 11.9636ZM74.7875 9.29091C75.7693 9.29091 76.4057 8.89091 76.4057 8.10909C76.4057 7.4 75.7693 7.01818 74.3511 7.01818C73.6966 7.01818 73.5875 7.12727 73.5875 7.61818C73.5875 7.92727 73.5875 8.2 73.6057 8.50909C73.6239 9.18182 73.7875 9.29091 74.7875 9.29091ZM74.3511 4.85455C75.533 4.85455 76.1693 4.4 76.1693 3.83636C76.1693 3.12727 75.6602 2.81818 74.6784 2.81818C73.8239 2.81818 73.6602 2.92727 73.642 3.50909C73.6239 3.72727 73.6057 3.96364 73.6057 4.23636C73.6057 4.72727 73.7511 4.85455 74.3511 4.85455Z" fill="#1B4D7E" fill-opacity="0.8"/>
</svg>
