<svg width="620" height="487" viewBox="0 0 620 487" fill="none" xmlns="http://www.w3.org/2000/svg">
<g filter="url(#filter0_ddiii_161_6671)">
<rect x="87" y="69" width="445.824" height="965.606" rx="69.12" fill="url(#paint0_linear_161_6671)"/>
</g>
<rect x="110.281" y="95.6602" width="399.268" height="913.459" rx="52.1856" fill="#FDD7CC"/>
<path d="M532.828 235.291V235.291C537.124 235.291 540.606 238.773 540.606 243.069V292.913C540.606 297.209 537.124 300.691 532.828 300.691V300.691V235.291Z" fill="white"/>
<path d="M532.102 333.562V333.562C535.44 333.562 538.146 336.269 538.146 339.607V387.467C538.146 390.806 535.44 393.512 532.102 393.512V393.512V333.562Z" fill="white"/>
<path d="M532.102 393.512V393.512C535.44 393.512 538.146 396.218 538.146 399.556V447.417C538.146 450.755 535.44 453.461 532.102 453.461V453.461V393.512Z" fill="white"/>
<g filter="url(#filter1_dd_161_6671)">
<path d="M56.3468 366.557C54.4984 345.43 70.1268 326.804 91.2539 324.956L334.8 303.648C355.927 301.8 374.552 317.429 376.4 338.556L384.401 430.006C386.25 451.133 370.621 469.759 349.494 471.607L67.6945 496.261L56.3468 366.557Z" fill="url(#paint1_radial_161_6671)" shape-rendering="crispEdges"/>
<path d="M56.3468 366.557C54.4984 345.43 70.1268 326.804 91.2539 324.956L334.8 303.648C355.927 301.8 374.552 317.429 376.4 338.556L384.401 430.006C386.25 451.133 370.621 469.759 349.494 471.607L67.6945 496.261L56.3468 366.557Z" fill="white" shape-rendering="crispEdges"/>
<path d="M106.753 374.594L100.029 367.69L100.68 375.126L97.3327 375.418L95.8727 358.73L99.2199 358.437L99.8746 365.921L105.293 357.906L109.333 357.553L103.171 366.427L110.985 374.224L106.753 374.594ZM111.981 367.415C111.864 366.076 112.023 364.866 112.458 363.784C112.91 362.7 113.565 361.84 114.425 361.203C115.301 360.564 116.304 360.195 117.436 360.096C118.424 360.01 119.302 360.134 120.07 360.468C120.854 360.801 121.496 361.251 121.995 361.817L121.83 359.928L125.201 359.633L126.36 372.879L122.989 373.174L122.819 371.237C122.443 371.896 121.891 372.467 121.162 372.948C120.448 373.412 119.597 373.687 118.608 373.774C117.493 373.871 116.447 373.674 115.473 373.181C114.514 372.687 113.718 371.945 113.086 370.956C112.468 369.951 112.1 368.77 111.981 367.415ZM122.409 366.551C122.338 365.738 122.118 365.059 121.749 364.513C121.379 363.951 120.909 363.542 120.341 363.287C119.771 363.016 119.175 362.907 118.554 362.961C117.932 363.016 117.372 363.218 116.872 363.566C116.373 363.915 115.981 364.399 115.698 365.018C115.43 365.62 115.33 366.319 115.4 367.116C115.47 367.913 115.69 368.601 116.062 369.178C116.449 369.739 116.919 370.155 117.473 370.428C118.042 370.7 118.63 370.809 119.236 370.756C119.857 370.701 120.426 370.499 120.941 370.149C121.455 369.783 121.847 369.299 122.115 368.697C122.382 368.079 122.481 367.364 122.409 366.551ZM132.847 361.735L133.408 368.143C133.447 368.589 133.579 368.907 133.804 369.096C134.044 369.267 134.419 369.331 134.929 369.286L136.483 369.15L136.73 371.972L134.626 372.156C131.805 372.403 130.274 371.155 130.034 368.414L129.476 362.03L127.898 362.168L127.657 359.419L129.235 359.281L128.949 356.005L132.32 355.71L132.606 358.986L135.571 358.726L135.812 361.476L132.847 361.735ZM151.085 363.753C151.127 364.231 151.133 364.665 151.102 365.053L141.419 365.9C141.583 366.849 141.983 367.569 142.62 368.059C143.257 368.55 144.006 368.757 144.867 368.682C146.11 368.573 146.948 367.962 147.381 366.848L150.991 366.532C150.72 367.841 150.079 368.957 149.067 369.88C148.055 370.788 146.759 371.311 145.181 371.449C143.906 371.561 142.734 371.382 141.665 370.913C140.611 370.428 139.751 369.692 139.087 368.706C138.438 367.719 138.055 366.548 137.936 365.193C137.816 363.822 137.99 362.594 138.457 361.509C138.925 360.424 139.636 359.559 140.591 358.913C141.547 358.268 142.678 357.888 143.985 357.773C145.244 357.663 146.391 357.836 147.427 358.291C148.479 358.745 149.319 359.451 149.949 360.408C150.593 361.347 150.972 362.462 151.085 363.753ZM147.535 363.1C147.443 362.241 147.073 361.583 146.422 361.126C145.771 360.653 145.006 360.454 144.13 360.531C143.301 360.604 142.622 360.92 142.093 361.48C141.578 362.023 141.296 362.747 141.247 363.65L147.535 363.1ZM153.581 353.681L157.096 353.374L155.041 359.625L152.745 359.826L153.581 353.681ZM166.283 369.603C165.199 369.698 164.21 369.592 163.315 369.284C162.42 368.961 161.688 368.487 161.119 367.862C160.566 367.236 160.231 366.519 160.112 365.71L163.483 365.415C163.591 365.919 163.875 366.32 164.335 366.617C164.81 366.913 165.375 367.032 166.029 366.975C166.666 366.919 167.149 366.749 167.477 366.463C167.822 366.176 167.976 365.833 167.942 365.434C167.904 365.004 167.653 364.705 167.188 364.537C166.739 364.351 166.024 364.173 165.046 364.001C164.036 363.849 163.202 363.673 162.542 363.474C161.898 363.273 161.322 362.93 160.814 362.444C160.321 361.957 160.036 361.268 159.958 360.375C159.894 359.642 160.043 358.954 160.404 358.312C160.781 357.669 161.345 357.138 162.096 356.719C162.862 356.298 163.779 356.042 164.847 355.948C166.425 355.81 167.719 356.098 168.729 356.813C169.738 357.512 170.349 358.526 170.561 359.857L167.358 360.137C167.264 359.615 167.004 359.221 166.579 358.953C166.169 358.667 165.637 358.553 164.984 358.61C164.378 358.663 163.917 358.816 163.602 359.068C163.303 359.319 163.171 359.644 163.206 360.043C163.245 360.489 163.498 360.812 163.965 361.012C164.431 361.196 165.144 361.367 166.106 361.524C167.083 361.679 167.894 361.857 168.537 362.058C169.181 362.258 169.75 362.61 170.244 363.113C170.752 363.599 171.053 364.279 171.145 365.154C171.212 365.919 171.057 366.623 170.68 367.267C170.318 367.909 169.754 368.44 168.988 368.86C168.236 369.263 167.335 369.511 166.283 369.603ZM182.756 356.549C183.131 355.874 183.675 355.305 184.39 354.841C185.12 354.375 185.971 354.1 186.943 354.015C188.075 353.916 189.12 354.106 190.077 354.584C191.05 355.061 191.845 355.794 192.462 356.784C193.093 357.757 193.468 358.921 193.586 360.276C193.705 361.631 193.539 362.858 193.089 363.957C192.654 365.039 191.999 365.908 191.125 366.562C190.267 367.216 189.272 367.592 188.14 367.691C187.152 367.777 186.266 367.662 185.484 367.345C184.716 367.011 184.081 366.552 183.581 365.969L183.746 367.858L180.399 368.151L178.851 350.459L182.198 350.166L182.756 356.549ZM190.167 360.575C190.098 359.778 189.87 359.107 189.485 358.563C189.115 358.001 188.646 357.592 188.077 357.337C187.525 357.08 186.938 356.979 186.316 357.033C185.71 357.086 185.151 357.296 184.637 357.662C184.137 358.011 183.746 358.495 183.463 359.114C183.195 359.731 183.097 360.439 183.166 361.236C183.236 362.033 183.456 362.712 183.827 363.274C184.213 363.834 184.683 364.251 185.237 364.524C185.805 364.779 186.392 364.88 186.998 364.827C187.62 364.773 188.179 364.563 188.678 364.199C189.192 363.832 189.582 363.34 189.849 362.723C190.133 362.104 190.239 361.388 190.167 360.575ZM197.242 351.741C196.652 351.792 196.142 351.652 195.712 351.32C195.296 350.971 195.063 350.518 195.014 349.96C194.966 349.402 195.116 348.923 195.467 348.523C195.832 348.106 196.309 347.871 196.899 347.82C197.489 347.768 197.992 347.917 198.408 348.266C198.838 348.598 199.078 349.042 199.127 349.6C199.175 350.158 199.017 350.646 198.652 351.063C198.302 351.463 197.832 351.689 197.242 351.741ZM199.03 353.174L200.189 366.42L196.841 366.713L195.683 353.467L199.03 353.174ZM206.103 354.627C206.472 353.888 206.982 353.29 207.632 352.831C208.299 352.371 209.078 352.102 209.971 352.024L210.278 355.539L209.394 355.616C208.342 355.708 207.566 356.025 207.068 356.567C206.585 357.107 206.397 357.991 206.505 359.218L207.082 365.817L203.735 366.109L202.576 352.864L205.923 352.571L206.103 354.627ZM216.619 354.406L217.179 360.814C217.219 361.26 217.351 361.578 217.576 361.767C217.816 361.938 218.191 362.002 218.701 361.957L220.255 361.821L220.502 364.643L218.398 364.827C215.577 365.073 214.046 363.826 213.806 361.085L213.248 354.701L211.67 354.839L211.429 352.089L213.007 351.951L212.721 348.676L216.092 348.381L216.378 351.657L219.343 351.397L219.584 354.147L216.619 354.406ZM229.432 350.322C230.437 350.234 231.349 350.379 232.169 350.757C232.987 351.119 233.65 351.711 234.155 352.534C234.675 353.34 234.988 354.341 235.092 355.536L235.772 363.307L232.425 363.599L231.785 356.283C231.693 355.231 231.359 354.449 230.785 353.938C230.208 353.41 229.466 353.186 228.558 353.265C227.633 353.346 226.925 353.697 226.433 354.318C225.956 354.922 225.764 355.75 225.856 356.802L226.496 364.118L223.148 364.411L221.601 346.719L224.948 346.426L225.481 352.522C225.861 351.911 226.396 351.414 227.085 351.033C227.773 350.635 228.556 350.398 229.432 350.322ZM237.75 356.412C237.633 355.073 237.792 353.863 238.227 352.781C238.679 351.697 239.342 350.836 240.218 350.197C241.093 349.558 242.097 349.19 243.229 349.091C244.089 349.015 244.927 349.135 245.742 349.449C246.555 349.747 247.219 350.187 247.736 350.768L247.186 344.48L250.581 344.183L252.129 361.876L248.734 362.173L248.562 360.212C248.205 360.902 247.669 361.479 246.955 361.943C246.241 362.407 245.39 362.682 244.401 362.768C243.286 362.866 242.24 362.668 241.266 362.175C240.291 361.683 239.487 360.942 238.855 359.953C238.237 358.947 237.869 357.767 237.75 356.412ZM248.178 355.548C248.107 354.735 247.887 354.055 247.518 353.51C247.148 352.948 246.678 352.539 246.11 352.284C245.54 352.012 244.944 351.904 244.323 351.958C243.701 352.013 243.141 352.214 242.641 352.563C242.142 352.912 241.75 353.396 241.467 354.015C241.199 354.617 241.099 355.316 241.169 356.113C241.239 356.91 241.459 357.597 241.831 358.175C242.218 358.735 242.688 359.152 243.241 359.425C243.811 359.696 244.399 359.805 245.005 359.752C245.626 359.698 246.195 359.496 246.71 359.145C247.224 358.779 247.616 358.295 247.884 357.694C248.151 357.076 248.249 356.361 248.178 355.548ZM254.193 354.973C254.076 353.634 254.235 352.424 254.67 351.342C255.121 350.259 255.777 349.398 256.637 348.761C257.512 348.122 258.516 347.753 259.648 347.654C260.636 347.568 261.514 347.692 262.282 348.026C263.066 348.359 263.708 348.809 264.207 349.375L264.042 347.487L267.413 347.192L268.572 360.437L265.201 360.732L265.031 358.795C264.655 359.455 264.103 360.025 263.374 360.506C262.66 360.97 261.808 361.246 260.82 361.332C259.704 361.43 258.659 361.232 257.685 360.739C256.726 360.245 255.93 359.503 255.298 358.515C254.68 357.509 254.311 356.328 254.193 354.973ZM264.621 354.109C264.55 353.296 264.33 352.617 263.961 352.071C263.591 351.509 263.121 351.1 262.553 350.845C261.983 350.574 261.387 350.465 260.766 350.52C260.144 350.574 259.583 350.776 259.084 351.124C258.584 351.473 258.193 351.957 257.91 352.576C257.641 353.178 257.542 353.877 257.612 354.674C257.681 355.471 257.902 356.159 258.274 356.736C258.66 357.297 259.13 357.713 259.684 357.986C260.254 358.258 260.842 358.367 261.448 358.314C262.069 358.259 262.638 358.057 263.153 357.707C263.667 357.341 264.058 356.857 264.327 356.255C264.594 355.637 264.692 354.922 264.621 354.109ZM283.593 345.776L277.099 366.003L273.537 366.315L275.828 359.465L269.391 347.019L273.145 346.69L277.373 355.644L280.03 346.088L283.593 345.776ZM293.132 343.351C292.542 343.403 292.032 343.263 291.601 342.931C291.185 342.582 290.953 342.129 290.904 341.571C290.855 341.013 291.006 340.534 291.357 340.134C291.722 339.716 292.199 339.482 292.789 339.43C293.378 339.379 293.881 339.528 294.297 339.877C294.728 340.208 294.968 340.653 295.016 341.211C295.065 341.769 294.907 342.257 294.542 342.674C294.192 343.074 293.721 343.3 293.132 343.351ZM294.919 344.785L296.078 358.03L292.731 358.323L291.572 345.078L294.919 344.785ZM304.712 357.492C303.628 357.587 302.639 357.481 301.745 357.173C300.849 356.85 300.117 356.376 299.549 355.751C298.996 355.125 298.66 354.408 298.541 353.599L301.912 353.304C302.021 353.808 302.305 354.209 302.764 354.506C303.24 354.802 303.804 354.921 304.458 354.864C305.095 354.808 305.578 354.638 305.907 354.352C306.251 354.065 306.406 353.722 306.371 353.323C306.333 352.893 306.082 352.594 305.618 352.426C305.168 352.24 304.454 352.062 303.475 351.89C302.466 351.738 301.631 351.562 300.971 351.363C300.327 351.162 299.751 350.819 299.243 350.333C298.751 349.846 298.466 349.157 298.388 348.264C298.323 347.531 298.472 346.843 298.833 346.201C299.211 345.558 299.775 345.027 300.525 344.608C301.291 344.187 302.208 343.931 303.276 343.837C304.854 343.699 306.148 343.987 307.158 344.702C308.167 345.401 308.778 346.415 308.991 347.746L305.787 348.026C305.693 347.504 305.434 347.11 305.009 346.842C304.598 346.556 304.066 346.442 303.413 346.499C302.807 346.552 302.347 346.705 302.032 346.957C301.732 347.208 301.6 347.533 301.635 347.932C301.674 348.378 301.927 348.701 302.394 348.901C302.86 349.085 303.574 349.256 304.535 349.413C305.512 349.568 306.323 349.746 306.967 349.947C307.611 350.147 308.18 350.499 308.673 351.002C309.182 351.488 309.482 352.168 309.575 353.043C309.642 353.808 309.486 354.512 309.109 355.156C308.748 355.798 308.184 356.329 307.417 356.749C306.666 357.152 305.764 357.4 304.712 357.492ZM105.673 403.013C104.398 403.124 103.226 402.946 102.157 402.477C101.087 401.992 100.212 401.258 99.5314 400.273C98.8669 399.288 98.4754 398.117 98.3569 396.762C98.2384 395.408 98.4287 394.186 98.9278 393.099C99.4428 392.01 100.194 391.141 101.181 390.492C102.167 389.828 103.298 389.44 104.573 389.328C105.848 389.217 107.028 389.403 108.115 389.886C109.2 390.353 110.082 391.079 110.763 392.063C111.459 393.046 111.866 394.215 111.985 395.57C112.103 396.925 111.897 398.148 111.366 399.238C110.851 400.327 110.093 401.204 109.091 401.87C108.104 402.519 106.965 402.9 105.673 403.013ZM105.418 400.096C106.024 400.043 106.577 399.85 107.078 399.517C107.594 399.167 107.985 398.683 108.252 398.065C108.519 397.447 108.616 396.716 108.542 395.871C108.432 394.612 108.013 393.677 107.285 393.066C106.571 392.438 105.736 392.166 104.78 392.249C103.824 392.333 103.049 392.746 102.455 393.489C101.876 394.214 101.642 395.206 101.752 396.465C101.862 397.725 102.258 398.67 102.94 399.301C103.636 399.914 104.462 400.179 105.418 400.096ZM121.423 387.878C123.001 387.74 124.32 388.131 125.38 389.05C126.439 389.953 127.046 391.297 127.203 393.082L127.882 400.853L124.535 401.145L123.895 393.829C123.803 392.777 123.47 391.996 122.895 391.484C122.319 390.956 121.576 390.732 120.668 390.811C119.743 390.892 119.035 391.243 118.544 391.864C118.066 392.468 117.874 393.296 117.966 394.348L118.606 401.664L115.259 401.957L114.1 388.712L117.447 388.419L117.591 390.069C117.987 389.456 118.514 388.96 119.172 388.581C119.844 388.185 120.594 387.951 121.423 387.878ZM153.975 381.754L155.435 398.442L152.088 398.735L151.138 387.88L147.617 399.126L145.083 399.348L139.638 388.887L140.588 399.741L137.241 400.034L135.781 383.346L139.582 383.013L145.975 394.957L150.198 382.084L153.975 381.754ZM157.539 391.536C157.422 390.198 157.581 388.987 158.017 387.905C158.468 386.822 159.123 385.961 159.983 385.324C160.859 384.685 161.862 384.316 162.994 384.217C163.982 384.131 164.86 384.255 165.628 384.589C166.412 384.922 167.054 385.372 167.553 385.938L167.388 384.05L170.759 383.755L171.918 397L168.547 397.295L168.378 395.358C168.002 396.018 167.449 396.588 166.72 397.069C166.006 397.533 165.155 397.809 164.167 397.895C163.051 397.993 162.006 397.795 161.031 397.302C160.072 396.808 159.277 396.066 158.644 395.078C158.026 394.072 157.658 392.891 157.539 391.536ZM167.968 390.672C167.896 389.859 167.676 389.18 167.307 388.634C166.937 388.072 166.468 387.664 165.899 387.408C165.329 387.137 164.734 387.028 164.112 387.083C163.49 387.137 162.93 387.339 162.43 387.687C161.931 388.036 161.54 388.52 161.256 389.139C160.988 389.741 160.888 390.44 160.958 391.237C161.028 392.034 161.249 392.722 161.62 393.299C162.007 393.86 162.477 394.277 163.031 394.549C163.6 394.821 164.188 394.93 164.794 394.877C165.416 394.822 165.984 394.62 166.5 394.27C167.014 393.904 167.405 393.42 167.673 392.818C167.941 392.2 168.039 391.485 167.968 390.672ZM177.795 385.211C178.164 384.472 178.673 383.873 179.324 383.415C179.99 382.955 180.77 382.686 181.662 382.608L181.97 386.123L181.085 386.2C180.033 386.292 179.258 386.609 178.759 387.15C178.277 387.69 178.089 388.574 178.196 389.801L178.774 396.4L175.426 396.693L174.267 383.448L177.615 383.155L177.795 385.211ZM183.891 389.279C183.772 387.908 183.946 386.688 184.415 385.62C184.882 384.535 185.585 383.67 186.524 383.026C187.463 382.366 188.569 381.98 189.844 381.868C191.486 381.724 192.877 382.02 194.017 382.756C195.172 383.474 195.998 384.558 196.494 386.008L192.884 386.324C192.643 385.767 192.277 385.349 191.787 385.071C191.311 384.775 190.739 384.657 190.069 384.715C189.113 384.799 188.386 385.216 187.89 385.966C187.392 386.7 187.199 387.705 187.31 388.98C187.421 390.239 187.785 391.195 188.405 391.848C189.022 392.484 189.809 392.761 190.766 392.677C192.121 392.558 192.952 391.875 193.261 390.628L196.871 390.312C196.63 391.778 196.004 392.981 194.994 393.921C193.984 394.861 192.666 395.402 191.041 395.544C189.766 395.655 188.609 395.475 187.572 395.004C186.534 394.517 185.691 393.787 185.044 392.816C184.396 391.829 184.011 390.65 183.891 389.279ZM206.237 380.458C207.241 380.37 208.153 380.515 208.974 380.893C209.792 381.255 210.454 381.848 210.96 382.671C211.48 383.476 211.793 384.477 211.897 385.673L212.577 393.443L209.23 393.736L208.59 386.42C208.498 385.368 208.164 384.586 207.589 384.074C207.013 383.546 206.271 383.322 205.362 383.401C204.438 383.482 203.73 383.833 203.238 384.455C202.761 385.058 202.568 385.886 202.66 386.938L203.3 394.254L199.953 394.547L198.405 376.855L201.753 376.562L202.286 382.659C202.666 382.047 203.201 381.551 203.89 381.169C204.578 380.772 205.361 380.535 206.237 380.458ZM222.274 388.788C223.693 387.379 224.819 386.212 225.654 385.288C226.487 384.348 227.166 383.389 227.691 382.412C228.216 381.434 228.439 380.499 228.361 379.606C228.29 378.794 228.043 378.173 227.62 377.744C227.197 377.315 226.587 377.136 225.79 377.205C224.993 377.275 224.403 377.6 224.02 378.179C223.636 378.743 223.476 379.488 223.541 380.414L220.29 380.698C220.186 378.78 220.625 377.28 221.606 376.198C222.604 375.115 223.931 374.501 225.589 374.356C227.406 374.197 228.843 374.561 229.901 375.449C230.957 376.32 231.554 377.544 231.692 379.122C231.8 380.366 231.57 381.582 230.999 382.773C230.429 383.963 229.75 385.018 228.963 385.938C228.175 386.842 227.139 387.945 225.856 389.246L232.909 388.628L233.151 391.402L221.341 392.435L221.123 389.949L222.274 388.788ZM238.965 386.195C239.154 386.886 239.488 387.402 239.968 387.746C240.462 388.072 241.092 388.202 241.857 388.135C242.845 388.048 243.527 387.579 243.902 386.727C244.276 385.859 244.378 384.453 244.208 382.508C243.886 383.051 243.402 383.494 242.758 383.84C242.13 384.184 241.433 384.389 240.668 384.456C239.648 384.546 238.705 384.419 237.84 384.077C236.99 383.718 236.289 383.145 235.738 382.358C235.186 381.555 234.858 380.556 234.753 379.36C234.598 377.591 235.002 376.143 235.963 375.014C236.923 373.87 238.312 373.219 240.129 373.06C242.392 372.862 244.049 373.448 245.101 374.817C246.168 376.186 246.829 378.328 247.084 381.245C247.266 383.317 247.231 385.031 246.98 386.386C246.745 387.739 246.219 388.797 245.403 389.559C244.602 390.32 243.452 390.766 241.954 390.897C240.775 391 239.751 390.865 238.883 390.491C238.014 390.101 237.324 389.559 236.813 388.865C236.318 388.154 235.999 387.354 235.857 386.467L238.965 386.195ZM241.123 381.67C241.952 381.598 242.583 381.285 243.016 380.734C243.45 380.182 243.629 379.475 243.554 378.615C243.471 377.674 243.153 376.971 242.598 376.506C242.058 376.023 241.358 375.819 240.497 375.895C239.636 375.97 238.975 376.301 238.512 376.887C238.064 377.457 237.878 378.18 237.955 379.056C238.029 379.901 238.329 380.573 238.854 381.074C239.394 381.556 240.15 381.755 241.123 381.67ZM254.087 379.235L254.648 385.642C254.687 386.089 254.819 386.406 255.044 386.595C255.284 386.767 255.659 386.831 256.169 386.786L257.723 386.65L257.97 389.471L255.866 389.656C253.045 389.902 251.515 388.655 251.275 385.913L250.716 379.53L249.138 379.668L248.898 376.918L250.476 376.78L250.189 373.505L253.56 373.21L253.847 376.485L256.811 376.226L257.052 378.976L254.087 379.235ZM266.901 375.151C267.905 375.063 268.817 375.208 269.637 375.586C270.456 375.948 271.118 376.54 271.624 377.363C272.144 378.169 272.456 379.17 272.561 380.365L273.241 388.135L269.893 388.428L269.253 381.112C269.161 380.06 268.828 379.278 268.253 378.766C267.677 378.239 266.935 378.015 266.026 378.094C265.102 378.175 264.393 378.526 263.902 379.147C263.425 379.751 263.232 380.579 263.324 381.631L263.964 388.947L260.617 389.24L259.069 371.547L262.416 371.255L262.95 377.351C263.33 376.74 263.864 376.243 264.554 375.862C265.242 375.464 266.024 375.227 266.901 375.151ZM280.013 384.001L277.804 390.965L275.652 391.153L276.618 384.298L280.013 384.001ZM287.464 380.169C287.347 378.831 287.506 377.62 287.941 376.538C288.393 375.455 289.048 374.594 289.908 373.957C290.784 373.318 291.787 372.949 292.919 372.85C293.907 372.764 294.785 372.888 295.553 373.222C296.337 373.555 296.979 374.005 297.478 374.571L297.313 372.683L300.684 372.388L301.843 385.633L298.472 385.928L298.303 383.991C297.927 384.651 297.374 385.221 296.645 385.702C295.931 386.166 295.08 386.442 294.092 386.528C292.976 386.626 291.931 386.428 290.956 385.935C289.997 385.441 289.202 384.699 288.569 383.711C287.951 382.705 287.583 381.524 287.464 380.169ZM297.893 379.305C297.821 378.492 297.601 377.813 297.232 377.267C296.862 376.705 296.393 376.297 295.824 376.041C295.254 375.77 294.659 375.661 294.037 375.716C293.415 375.77 292.855 375.972 292.355 376.321C291.856 376.669 291.465 377.153 291.181 377.772C290.913 378.374 290.813 379.073 290.883 379.87C290.953 380.667 291.174 381.355 291.545 381.932C291.932 382.493 292.402 382.91 292.956 383.182C293.525 383.454 294.113 383.563 294.719 383.51C295.341 383.456 295.909 383.253 296.424 382.903C296.939 382.537 297.33 382.053 297.598 381.451C297.866 380.833 297.964 380.118 297.893 379.305ZM311.516 371.247C313.094 371.109 314.413 371.5 315.473 372.419C316.532 373.322 317.139 374.666 317.295 376.451L317.975 384.222L314.628 384.515L313.988 377.198C313.896 376.147 313.562 375.365 312.988 374.853C312.411 374.325 311.669 374.101 310.76 374.18C309.836 374.261 309.128 374.612 308.636 375.233C308.159 375.837 307.966 376.665 308.058 377.717L308.698 385.033L305.351 385.326L304.192 372.081L307.54 371.788L307.684 373.438C308.08 372.825 308.607 372.329 309.264 371.95C309.936 371.554 310.687 371.32 311.516 371.247ZM319.953 377.327C319.836 375.988 319.995 374.778 320.43 373.696C320.881 372.612 321.545 371.751 322.421 371.112C323.296 370.474 324.3 370.105 325.432 370.006C326.292 369.93 327.13 370.05 327.944 370.364C328.758 370.662 329.422 371.102 329.939 371.683L329.389 365.395L332.784 365.098L334.332 382.791L330.937 383.088L330.765 381.127C330.408 381.817 329.872 382.394 329.158 382.858C328.444 383.322 327.592 383.597 326.604 383.684C325.488 383.781 324.443 383.584 323.469 383.091C322.494 382.598 321.69 381.857 321.058 380.868C320.44 379.862 320.071 378.682 319.953 377.327ZM330.381 376.463C330.31 375.65 330.09 374.971 329.721 374.425C329.351 373.863 328.881 373.454 328.313 373.199C327.743 372.927 327.147 372.819 326.526 372.873C325.904 372.928 325.344 373.129 324.844 373.478C324.345 373.827 323.953 374.311 323.67 374.93C323.402 375.532 323.302 376.231 323.372 377.028C323.442 377.825 323.662 378.512 324.034 379.09C324.42 379.651 324.89 380.067 325.444 380.34C326.014 380.611 326.602 380.72 327.208 380.667C327.829 380.613 328.398 380.411 328.913 380.061C329.427 379.694 329.819 379.21 330.087 378.609C330.354 377.991 330.452 377.276 330.381 376.463ZM110.397 412.67L111.422 424.385C111.564 426.011 111.205 427.319 110.344 428.31C109.482 429.285 108.262 429.841 106.684 429.979C105.09 430.119 103.758 429.769 102.689 428.931C101.636 428.092 101.037 426.843 100.892 425.186L104.239 424.893C104.318 425.609 104.534 426.152 104.888 426.522C105.257 426.892 105.753 427.049 106.374 426.995C106.98 426.942 107.426 426.71 107.711 426.3C107.996 425.889 108.11 425.349 108.051 424.68L107.026 412.964L110.397 412.67ZM114.557 422.4C114.439 421.061 114.598 419.851 115.034 418.769C115.485 417.685 116.141 416.825 117 416.187C117.876 415.549 118.88 415.18 120.011 415.081C121 414.994 121.878 415.118 122.646 415.453C123.43 415.786 124.071 416.235 124.571 416.802L124.405 414.913L127.777 414.618L128.935 427.864L125.564 428.159L125.395 426.222C125.019 426.881 124.466 427.452 123.738 427.933C123.023 428.397 122.172 428.672 121.184 428.759C120.068 428.856 119.023 428.659 118.048 428.166C117.09 427.671 116.294 426.93 115.661 425.941C115.043 424.935 114.675 423.755 114.557 422.4ZM124.985 421.536C124.914 420.723 124.694 420.044 124.325 419.498C123.954 418.936 123.485 418.527 122.917 418.272C122.347 418 121.751 417.892 121.129 417.946C120.508 418.001 119.947 418.202 119.448 418.551C118.948 418.9 118.557 419.384 118.274 420.003C118.005 420.605 117.906 421.304 117.975 422.101C118.045 422.898 118.266 423.585 118.638 424.163C119.024 424.724 119.494 425.14 120.048 425.413C120.618 425.684 121.206 425.793 121.811 425.74C122.433 425.686 123.001 425.484 123.517 425.134C124.031 424.767 124.422 424.283 124.691 423.682C124.958 423.064 125.056 422.349 124.985 421.536ZM131.004 421.009C130.884 419.639 131.058 418.419 131.527 417.35C131.994 416.265 132.697 415.4 133.637 414.756C134.575 414.096 135.681 413.71 136.956 413.598C138.598 413.455 139.989 413.751 141.129 414.486C142.284 415.204 143.11 416.288 143.606 417.738L139.996 418.054C139.755 417.497 139.389 417.08 138.899 416.801C138.423 416.506 137.851 416.387 137.181 416.446C136.225 416.529 135.498 416.946 135.002 417.696C134.504 418.43 134.311 419.435 134.422 420.71C134.533 421.969 134.897 422.925 135.517 423.578C136.134 424.214 136.921 424.491 137.878 424.407C139.233 424.289 140.064 423.606 140.373 422.358L143.983 422.042C143.742 423.509 143.116 424.712 142.106 425.651C141.096 426.591 139.779 427.132 138.153 427.274C136.878 427.386 135.722 427.206 134.684 426.734C133.646 426.247 132.803 425.518 132.156 424.546C131.508 423.559 131.123 422.38 131.004 421.009ZM154.907 425.591L149.919 420.342L150.412 425.985L147.065 426.277L145.517 408.585L148.865 408.292L149.745 418.358L153.701 412.35L158.052 411.969L152.8 419.126L159.259 425.211L154.907 425.591ZM160.476 408.288L163.991 407.981L161.936 414.232L159.64 414.432L160.476 408.288ZM173.177 424.21C172.094 424.305 171.105 424.198 170.21 423.891C169.315 423.568 168.583 423.094 168.014 422.469C167.461 421.843 167.126 421.126 167.007 420.317L170.378 420.022C170.486 420.526 170.77 420.927 171.23 421.224C171.705 421.52 172.27 421.639 172.923 421.582C173.561 421.526 174.044 421.355 174.372 421.07C174.717 420.783 174.871 420.44 174.836 420.041C174.799 419.611 174.548 419.312 174.083 419.144C173.633 418.958 172.919 418.78 171.941 418.608C170.931 418.456 170.097 418.28 169.437 418.08C168.793 417.88 168.217 417.537 167.709 417.051C167.216 416.564 166.931 415.874 166.853 414.982C166.789 414.249 166.938 413.561 167.299 412.919C167.676 412.276 168.24 411.745 168.991 411.326C169.757 410.905 170.674 410.648 171.742 410.555C173.32 410.417 174.614 410.705 175.624 411.42C176.633 412.119 177.244 413.133 177.456 414.464L174.253 414.744C174.159 414.222 173.899 413.827 173.474 413.559C173.064 413.274 172.532 413.16 171.878 413.217C171.273 413.27 170.812 413.423 170.497 413.675C170.198 413.926 170.066 414.251 170.1 414.65C170.14 415.096 170.393 415.419 170.86 415.619C171.326 415.803 172.039 415.974 173.001 416.13C173.978 416.286 174.788 416.464 175.432 416.665C176.076 416.865 176.645 417.217 177.139 417.72C177.647 418.205 177.948 418.886 178.04 419.761C178.107 420.526 177.952 421.23 177.575 421.874C177.213 422.516 176.649 423.047 175.883 423.467C175.131 423.87 174.229 424.118 173.177 424.21ZM189.651 411.156C190.026 410.481 190.57 409.912 191.285 409.447C192.015 408.982 192.866 408.707 193.838 408.622C194.97 408.523 196.015 408.712 196.972 409.191C197.945 409.668 198.74 410.401 199.357 411.391C199.988 412.364 200.363 413.528 200.481 414.883C200.6 416.237 200.434 417.465 199.984 418.564C199.549 419.646 198.894 420.514 198.02 421.169C197.162 421.822 196.166 422.199 195.035 422.298C194.047 422.384 193.161 422.269 192.379 421.952C191.611 421.617 190.976 421.159 190.475 420.576L190.641 422.465L187.293 422.758L185.746 405.066L189.093 404.773L189.651 411.156ZM197.062 415.182C196.993 414.385 196.765 413.714 196.38 413.17C196.01 412.608 195.541 412.199 194.972 411.944C194.42 411.687 193.833 411.586 193.211 411.64C192.605 411.693 192.045 411.903 191.531 412.269C191.032 412.618 190.641 413.102 190.357 413.721C190.09 414.338 189.992 415.045 190.061 415.842C190.131 416.639 190.351 417.319 190.721 417.881C191.108 418.441 191.578 418.858 192.132 419.13C192.7 419.386 193.287 419.487 193.893 419.434C194.515 419.38 195.074 419.17 195.573 418.805C196.087 418.439 196.477 417.947 196.744 417.33C197.027 416.711 197.133 415.995 197.062 415.182ZM204.137 406.348C203.547 406.399 203.037 406.259 202.606 405.927C202.19 405.578 201.958 405.125 201.909 404.567C201.86 404.009 202.011 403.53 202.362 403.13C202.727 402.713 203.204 402.478 203.794 402.427C204.384 402.375 204.887 402.524 205.303 402.873C205.733 403.204 205.973 403.649 206.022 404.207C206.07 404.765 205.912 405.253 205.547 405.67C205.197 406.07 204.727 406.296 204.137 406.348ZM205.925 407.781L207.084 421.027L203.736 421.319L202.577 408.074L205.925 407.781ZM212.998 409.234C213.367 408.495 213.877 407.897 214.527 407.438C215.194 406.978 215.973 406.709 216.866 406.631L217.173 410.146L216.289 410.223C215.237 410.315 214.461 410.632 213.963 411.174C213.48 411.714 213.292 412.597 213.4 413.825L213.977 420.423L210.63 420.716L209.471 407.471L212.818 407.178L212.998 409.234ZM223.514 409.013L224.074 415.42C224.113 415.867 224.246 416.184 224.471 416.373C224.711 416.545 225.086 416.609 225.596 416.564L227.15 416.428L227.397 419.249L225.293 419.433C222.472 419.68 220.941 418.433 220.701 415.691L220.143 409.308L218.565 409.446L218.324 406.696L219.902 406.558L219.616 403.283L222.987 402.988L223.273 406.263L226.238 406.004L226.478 408.753L223.514 409.013ZM236.327 404.929C237.331 404.841 238.244 404.986 239.064 405.364C239.882 405.726 240.544 406.318 241.05 407.141C241.57 407.947 241.883 408.948 241.987 410.143L242.667 417.913L239.32 418.206L238.68 410.89C238.588 409.838 238.254 409.056 237.68 408.544C237.103 408.017 236.361 407.793 235.452 407.872C234.528 407.953 233.82 408.304 233.328 408.925C232.851 409.529 232.658 410.357 232.75 411.409L233.391 418.725L230.043 419.018L228.495 401.325L231.843 401.033L232.376 407.129C232.756 406.518 233.291 406.021 233.98 405.64C234.668 405.242 235.451 405.005 236.327 404.929ZM244.645 411.019C244.528 409.68 244.687 408.469 245.122 407.387C245.574 406.304 246.237 405.443 247.113 404.804C247.988 404.165 248.992 403.796 250.124 403.697C250.984 403.622 251.822 403.742 252.636 404.056C253.45 404.354 254.114 404.794 254.631 405.375L254.081 399.087L257.476 398.79L259.024 416.482L255.629 416.779L255.457 414.819C255.1 415.509 254.564 416.086 253.85 416.55C253.136 417.014 252.284 417.289 251.296 417.375C250.18 417.473 249.135 417.275 248.161 416.782C247.186 416.289 246.382 415.549 245.75 414.56C245.132 413.554 244.763 412.374 244.645 411.019ZM255.073 410.155C255.002 409.342 254.782 408.662 254.413 408.116C254.043 407.555 253.573 407.146 253.005 406.89C252.435 406.619 251.839 406.511 251.218 406.565C250.596 406.619 250.036 406.821 249.536 407.17C249.037 407.519 248.645 408.003 248.362 408.622C248.094 409.223 247.994 409.923 248.064 410.72C248.134 411.517 248.354 412.204 248.726 412.782C249.112 413.342 249.583 413.759 250.136 414.032C250.706 414.303 251.294 414.412 251.9 414.359C252.521 414.305 253.09 414.103 253.605 413.752C254.119 413.386 254.511 412.902 254.779 412.3C255.046 411.683 255.144 410.968 255.073 410.155ZM261.088 409.58C260.971 408.241 261.13 407.031 261.565 405.949C262.016 404.865 262.672 404.005 263.532 403.368C264.407 402.729 265.411 402.36 266.543 402.261C267.531 402.175 268.409 402.298 269.177 402.633C269.961 402.966 270.603 403.416 271.102 403.982L270.937 402.093L274.308 401.798L275.467 415.044L272.095 415.339L271.926 413.402C271.55 414.061 270.998 414.632 270.269 415.113C269.555 415.577 268.703 415.852 267.715 415.939C266.599 416.036 265.554 415.839 264.58 415.346C263.621 414.852 262.825 414.11 262.193 413.121C261.575 412.115 261.206 410.935 261.088 409.58ZM271.516 408.716C271.445 407.903 271.225 407.224 270.856 406.678C270.486 406.116 270.016 405.707 269.448 405.452C268.878 405.181 268.282 405.072 267.661 405.126C267.039 405.181 266.478 405.382 265.979 405.731C265.479 406.08 265.088 406.564 264.805 407.183C264.536 407.785 264.437 408.484 264.507 409.281C264.576 410.078 264.797 410.765 265.169 411.343C265.555 411.904 266.025 412.32 266.579 412.593C267.149 412.864 267.737 412.974 268.342 412.921C268.964 412.866 269.533 412.664 270.048 412.314C270.562 411.948 270.953 411.464 271.222 410.862C271.489 410.244 271.587 409.529 271.516 408.716ZM290.488 400.383L283.994 420.61L280.431 420.921L282.723 414.072L276.286 401.625L280.04 401.297L284.268 410.251L286.925 400.695L290.488 400.383ZM300.027 397.958C299.437 398.01 298.927 397.87 298.496 397.538C298.08 397.189 297.848 396.736 297.799 396.178C297.75 395.62 297.901 395.141 298.251 394.741C298.616 394.323 299.094 394.089 299.684 394.037C300.273 393.986 300.776 394.134 301.192 394.483C301.623 394.815 301.862 395.26 301.911 395.818C301.96 396.376 301.802 396.863 301.437 397.281C301.086 397.681 300.616 397.907 300.027 397.958ZM301.814 399.392L302.973 412.637L299.626 412.93L298.467 399.685L301.814 399.392ZM311.607 412.099C310.523 412.194 309.534 412.087 308.64 411.78C307.744 411.457 307.012 410.983 306.443 410.358C305.891 409.732 305.555 409.015 305.436 408.206L308.807 407.911C308.916 408.415 309.2 408.816 309.659 409.113C310.135 409.409 310.699 409.528 311.353 409.471C311.99 409.415 312.473 409.244 312.802 408.959C313.146 408.672 313.301 408.329 313.266 407.93C313.228 407.5 312.977 407.201 312.513 407.033C312.063 406.847 311.349 406.669 310.37 406.497C309.361 406.345 308.526 406.169 307.866 405.969C307.222 405.769 306.646 405.426 306.138 404.94C305.646 404.453 305.361 403.763 305.282 402.871C305.218 402.138 305.367 401.45 305.728 400.808C306.106 400.165 306.67 399.634 307.42 399.215C308.186 398.794 309.103 398.537 310.171 398.444C311.749 398.306 313.043 398.594 314.053 399.309C315.062 400.008 315.673 401.022 315.886 402.353L312.682 402.633C312.588 402.111 312.329 401.716 311.904 401.448C311.493 401.163 310.961 401.049 310.308 401.106C309.702 401.159 309.242 401.312 308.926 401.564C308.627 401.815 308.495 402.14 308.53 402.539C308.569 402.985 308.822 403.308 309.289 403.508C309.755 403.692 310.469 403.863 311.43 404.019C312.407 404.175 313.218 404.353 313.862 404.554C314.506 404.754 315.075 405.106 315.568 405.609C316.076 406.094 316.377 406.775 316.47 407.65C316.536 408.415 316.381 409.119 316.004 409.763C315.642 410.405 315.079 410.936 314.312 411.356C313.561 411.759 312.659 412.007 311.607 412.099ZM110.467 457.803C109.192 457.915 108.02 457.736 106.951 457.268C105.881 456.783 105.005 456.049 104.325 455.064C103.66 454.078 103.269 452.908 103.15 451.553C103.032 450.198 103.222 448.977 103.721 447.889C104.236 446.8 104.988 445.932 105.975 445.283C106.961 444.619 108.091 444.231 109.366 444.119C110.641 444.008 111.822 444.193 112.908 444.676C113.993 445.144 114.876 445.87 115.556 446.854C116.252 447.837 116.66 449.006 116.778 450.361C116.897 451.716 116.691 452.938 116.16 454.029C115.645 455.118 114.886 455.995 113.884 456.661C112.897 457.31 111.758 457.69 110.467 457.803ZM110.212 454.886C110.818 454.833 111.371 454.64 111.872 454.307C112.387 453.957 112.778 453.473 113.046 452.856C113.313 452.238 113.409 451.507 113.336 450.662C113.225 449.403 112.806 448.468 112.078 447.857C111.365 447.229 110.53 446.956 109.574 447.04C108.617 447.124 107.842 447.537 107.249 448.279C106.67 449.005 106.435 449.997 106.545 451.256C106.656 452.515 107.052 453.46 107.733 454.091C108.429 454.705 109.255 454.97 110.212 454.886ZM126.217 442.669C127.795 442.531 129.114 442.921 130.174 443.841C131.233 444.744 131.84 446.088 131.996 447.873L132.676 455.643L129.329 455.936L128.689 448.62C128.597 447.568 128.263 446.786 127.688 446.274C127.112 445.747 126.37 445.522 125.461 445.602C124.537 445.683 123.829 446.034 123.337 446.655C122.86 447.259 122.667 448.087 122.759 449.139L123.399 456.455L120.052 456.748L118.893 443.502L122.241 443.21L122.385 444.859C122.781 444.246 123.308 443.751 123.965 443.372C124.637 442.976 125.388 442.741 126.217 442.669ZM150.305 437.285L151.33 449C151.472 450.626 151.113 451.934 150.252 452.925C149.39 453.9 148.169 454.456 146.591 454.595C144.998 454.734 143.666 454.385 142.597 453.547C141.544 452.707 140.945 451.459 140.8 449.801L144.147 449.508C144.226 450.224 144.442 450.767 144.795 451.138C145.165 451.507 145.661 451.665 146.282 451.61C146.888 451.557 147.333 451.325 147.619 450.915C147.904 450.505 148.017 449.965 147.959 449.295L146.934 437.58L150.305 437.285ZM154.464 447.016C154.347 445.677 154.506 444.466 154.942 443.384C155.393 442.301 156.048 441.44 156.908 440.803C157.784 440.164 158.788 439.795 159.919 439.696C160.907 439.61 161.786 439.734 162.554 440.068C163.338 440.401 163.979 440.851 164.479 441.417L164.313 439.529L167.684 439.234L168.843 452.479L165.472 452.774L165.303 450.837C164.927 451.497 164.374 452.067 163.646 452.548C162.931 453.012 162.08 453.288 161.092 453.374C159.976 453.472 158.931 453.274 157.956 452.781C156.997 452.287 156.202 451.545 155.569 450.557C154.951 449.551 154.583 448.37 154.464 447.016ZM164.893 446.151C164.822 445.338 164.602 444.659 164.233 444.113C163.862 443.551 163.393 443.143 162.824 442.887C162.255 442.616 161.659 442.507 161.037 442.562C160.416 442.616 159.855 442.818 159.356 443.167C158.856 443.515 158.465 443.999 158.182 444.618C157.913 445.22 157.814 445.919 157.883 446.716C157.953 447.513 158.174 448.201 158.546 448.779C158.932 449.339 159.402 449.756 159.956 450.028C160.526 450.3 161.113 450.409 161.719 450.356C162.341 450.302 162.909 450.099 163.425 449.749C163.939 449.383 164.33 448.899 164.599 448.297C164.866 447.68 164.964 446.964 164.893 446.151ZM178.516 438.093C180.094 437.955 181.413 438.346 182.473 439.265C183.532 440.168 184.139 441.512 184.295 443.297L184.975 451.068L181.628 451.361L180.988 444.045C180.896 442.993 180.563 442.211 179.988 441.699C179.412 441.171 178.669 440.947 177.761 441.026C176.836 441.107 176.128 441.458 175.636 442.079C175.159 442.683 174.967 443.511 175.059 444.563L175.699 451.879L172.351 452.172L171.193 438.927L174.54 438.634L174.684 440.284C175.08 439.671 175.607 439.175 176.265 438.796C176.937 438.4 177.687 438.166 178.516 438.093ZM199.743 436.429L200.902 449.674L197.531 449.969L197.384 448.296C197.004 448.907 196.478 449.411 195.806 449.807C195.148 450.186 194.413 450.411 193.6 450.482C192.564 450.572 191.629 450.437 190.794 450.077C189.958 449.7 189.272 449.11 188.736 448.305C188.214 447.484 187.902 446.483 187.799 445.304L187.119 437.533L190.466 437.241L191.104 444.533C191.196 445.585 191.53 446.375 192.107 446.902C192.681 447.414 193.423 447.63 194.332 447.551C195.256 447.47 195.957 447.128 196.434 446.524C196.91 445.904 197.102 445.068 197.01 444.016L196.372 436.724L199.743 436.429ZM202.999 442.769C202.882 441.43 203.041 440.22 203.476 439.138C203.928 438.054 204.583 437.194 205.443 436.557C206.318 435.918 207.322 435.549 208.454 435.45C209.442 435.364 210.32 435.488 211.088 435.822C211.872 436.155 212.514 436.605 213.013 437.171L212.848 435.282L216.219 434.987L217.378 448.233L214.007 448.528L213.837 446.591C213.461 447.251 212.909 447.821 212.18 448.302C211.466 448.766 210.615 449.041 209.626 449.128C208.511 449.226 207.465 449.028 206.491 448.535C205.532 448.041 204.736 447.299 204.104 446.31C203.486 445.305 203.118 444.124 202.999 442.769ZM213.427 441.905C213.356 441.092 213.136 440.413 212.767 439.867C212.397 439.305 211.927 438.896 211.359 438.641C210.789 438.37 210.193 438.261 209.572 438.316C208.95 438.37 208.39 438.572 207.89 438.92C207.391 439.269 206.999 439.753 206.716 440.372C206.448 440.974 206.348 441.673 206.418 442.47C206.488 443.267 206.708 443.955 207.08 444.532C207.466 445.093 207.937 445.509 208.49 445.782C209.06 446.054 209.648 446.163 210.254 446.11C210.875 446.055 211.444 445.853 211.959 445.503C212.473 445.137 212.865 444.653 213.133 444.051C213.4 443.433 213.498 442.718 213.427 441.905ZM223.254 436.444C223.623 435.705 224.133 435.106 224.784 434.648C225.45 434.188 226.23 433.919 227.122 433.841L227.43 437.355L226.545 437.433C225.493 437.525 224.718 437.842 224.219 438.383C223.736 438.923 223.549 439.807 223.656 441.034L224.233 447.633L220.886 447.926L219.727 434.681L223.074 434.388L223.254 436.444ZM242.304 432.705L235.81 452.932L232.248 453.244L234.54 446.394L228.102 433.948L231.856 433.619L236.085 442.573L238.742 433.017L242.304 432.705ZM260.85 429.42L255.794 444.872L252.399 445.169L257.537 430.096L249.36 430.811L249.109 427.942L260.633 426.934L260.85 429.42ZM267.759 433.249L268.319 439.656C268.358 440.103 268.491 440.42 268.716 440.609C268.956 440.781 269.331 440.845 269.841 440.8L271.395 440.664L271.642 443.485L269.538 443.669C266.717 443.916 265.186 442.669 264.946 439.927L264.388 433.544L262.81 433.682L262.569 430.932L264.147 430.794L263.861 427.519L267.232 427.224L267.518 430.499L270.483 430.24L270.724 432.99L267.759 433.249ZM280.572 429.165C281.576 429.077 282.489 429.222 283.309 429.6C284.127 429.962 284.789 430.554 285.295 431.377C285.815 432.183 286.128 433.184 286.232 434.379L286.912 442.149L283.565 442.442L282.925 435.126C282.833 434.074 282.499 433.292 281.925 432.78C281.348 432.253 280.606 432.029 279.698 432.108C278.773 432.189 278.065 432.54 277.573 433.161C277.096 433.765 276.903 434.593 276.996 435.645L277.636 442.961L274.288 443.254L272.74 425.561L276.088 425.269L276.621 431.365C277.001 430.754 277.536 430.257 278.225 429.876C278.913 429.478 279.696 429.241 280.572 429.165Z" fill="url(#paint2_linear_161_6671)"/>
</g>
<g filter="url(#filter2_dd_161_6671)">
<path d="M294.911 206.254C296.759 185.127 315.385 169.498 336.512 171.347L530.854 188.349C551.981 190.198 567.609 208.823 565.761 229.95L556.853 331.761L324.258 311.412C303.131 309.563 287.502 290.938 289.35 269.811L294.911 206.254Z" fill="url(#paint3_radial_161_6671)" shape-rendering="crispEdges"/>
<path d="M357.499 207.361L351.377 223.641L347.432 223.296L345.34 211.14L341.024 222.736L337.101 222.417L334.069 205.311L337.655 205.625L339.462 218.841L343.991 206.179L347.72 206.506L349.797 219.673L353.889 207.045L357.499 207.361ZM367.338 211.498C368.342 211.586 369.215 211.887 369.957 212.402C370.7 212.901 371.25 213.599 371.605 214.498C371.977 215.381 372.111 216.421 372.006 217.616L371.327 225.387L367.979 225.094L368.619 217.778C368.712 216.726 368.519 215.898 368.042 215.294C367.566 214.674 366.874 214.325 365.965 214.245C365.041 214.164 364.282 214.387 363.69 214.913C363.116 215.425 362.782 216.207 362.69 217.259L362.05 224.575L358.703 224.282L360.251 206.59L363.598 206.883L363.065 212.979C363.545 212.443 364.158 212.047 364.903 211.791C365.65 211.519 366.461 211.422 367.338 211.498ZM387.905 219.875C387.863 220.353 387.794 220.78 387.697 221.157L378.014 220.31C378.01 221.274 378.279 222.052 378.821 222.646C379.364 223.239 380.065 223.574 380.926 223.649C382.169 223.758 383.1 223.301 383.72 222.279L387.33 222.595C386.836 223.837 386.011 224.824 384.854 225.558C383.699 226.277 382.333 226.567 380.755 226.428C379.48 226.317 378.357 225.938 377.385 225.29C376.431 224.629 375.713 223.755 375.23 222.669C374.762 221.584 374.588 220.364 374.707 219.009C374.826 217.638 375.211 216.459 375.859 215.472C376.508 214.485 377.358 213.756 378.411 213.286C379.464 212.816 380.644 212.638 381.951 212.753C383.211 212.863 384.311 213.232 385.251 213.861C386.208 214.49 386.914 215.331 387.368 216.383C387.839 217.42 388.018 218.584 387.905 219.875ZM384.522 218.615C384.582 217.753 384.331 217.04 383.77 216.477C383.21 215.898 382.492 215.571 381.615 215.494C380.786 215.421 380.063 215.615 379.444 216.075C378.843 216.52 378.44 217.184 378.234 218.065L384.522 218.615ZM398.738 214.245C400.316 214.383 401.547 214.997 402.431 216.086C403.317 217.16 403.682 218.589 403.526 220.374L402.846 228.144L399.499 227.852L400.139 220.535C400.231 219.484 400.038 218.656 399.561 218.052C399.085 217.432 398.393 217.082 397.485 217.003C396.56 216.922 395.802 217.145 395.21 217.671C394.635 218.183 394.301 218.965 394.209 220.017L393.569 227.333L390.222 227.04L391.381 213.795L394.728 214.087L394.584 215.737C395.08 215.202 395.685 214.806 396.398 214.547C397.129 214.273 397.909 214.173 398.738 214.245ZM415.677 214.33C415.087 214.278 414.609 214.052 414.242 213.651C413.893 213.234 413.743 212.748 413.792 212.19C413.841 211.632 414.073 211.186 414.487 210.853C414.919 210.506 415.43 210.357 416.02 210.409C416.609 210.461 417.079 210.694 417.428 211.11C417.794 211.512 417.953 211.992 417.904 212.549C417.856 213.107 417.615 213.56 417.183 213.908C416.769 214.241 416.266 214.382 415.677 214.33ZM417.188 216.052L416.029 229.298L412.682 229.005L413.841 215.76L417.188 216.052ZM424.865 230.288C423.781 230.193 422.825 229.916 421.998 229.459C421.172 228.985 420.533 228.391 420.082 227.677C419.646 226.964 419.44 226.199 419.463 225.382L422.835 225.677C422.854 226.193 423.064 226.637 423.465 227.009C423.882 227.383 424.417 227.598 425.071 227.656C425.708 227.711 426.214 227.627 426.587 227.403C426.975 227.18 427.187 226.869 427.222 226.471C427.26 226.04 427.065 225.702 426.636 225.456C426.226 225.195 425.553 224.895 424.619 224.556C423.652 224.231 422.86 223.913 422.245 223.602C421.646 223.292 421.138 222.855 420.722 222.288C420.322 221.723 420.161 220.994 420.239 220.102C420.303 219.368 420.569 218.717 421.036 218.148C421.519 217.58 422.167 217.154 422.979 216.872C423.806 216.591 424.754 216.497 425.822 216.591C427.4 216.729 428.624 217.238 429.495 218.117C430.367 218.98 430.792 220.085 430.771 221.433L427.567 221.152C427.565 220.622 427.378 220.188 427.006 219.851C426.652 219.498 426.148 219.294 425.494 219.236C424.888 219.183 424.408 219.254 424.054 219.448C423.716 219.643 423.529 219.94 423.494 220.338C423.455 220.785 423.649 221.147 424.074 221.425C424.501 221.687 425.174 221.979 426.093 222.3C427.029 222.623 427.796 222.939 428.395 223.249C428.995 223.558 429.494 224.003 429.893 224.584C430.309 225.151 430.487 225.873 430.426 226.751C430.359 227.516 430.084 228.182 429.601 228.751C429.133 229.32 428.486 229.745 427.658 230.026C426.848 230.292 425.916 230.38 424.865 230.288ZM448.916 232.175L443.494 224.208L442.844 231.644L439.496 231.351L440.956 214.663L444.304 214.955L443.649 222.439L450.376 215.487L454.417 215.84L446.808 223.51L453.148 232.545L448.916 232.175ZM455.551 226.034C455.668 224.695 456.035 223.531 456.652 222.541C457.284 221.552 458.079 220.818 459.036 220.34C460.01 219.863 461.062 219.674 462.194 219.773C463.182 219.86 464.025 220.134 464.724 220.597C465.438 221.061 465.992 221.615 466.385 222.26L466.55 220.371L469.921 220.666L468.763 233.911L465.392 233.616L465.561 231.68C465.076 232.264 464.433 232.73 463.632 233.077C462.848 233.41 461.962 233.533 460.974 233.447C459.858 233.349 458.863 232.973 457.989 232.318C457.13 231.665 456.475 230.797 456.024 229.713C455.59 228.615 455.432 227.389 455.551 226.034ZM465.971 226.994C466.042 226.181 465.943 225.474 465.675 224.872C465.408 224.254 465.016 223.77 464.501 223.42C463.987 223.054 463.419 222.843 462.797 222.789C462.176 222.735 461.589 222.836 461.036 223.093C460.484 223.35 460.014 223.758 459.628 224.319C459.259 224.865 459.04 225.536 458.97 226.333C458.9 227.13 458.998 227.845 459.264 228.479C459.547 229.098 459.938 229.59 460.436 229.955C460.95 230.321 461.51 230.53 462.115 230.583C462.737 230.638 463.332 230.537 463.901 230.282C464.47 230.01 464.94 229.602 465.309 229.056C465.679 228.494 465.9 227.807 465.971 226.994ZM477.325 224.084L476.765 230.492C476.726 230.938 476.801 231.274 476.99 231.499C477.196 231.71 477.554 231.838 478.065 231.882L479.619 232.018L479.372 234.84L477.268 234.655C474.447 234.409 473.156 232.914 473.396 230.173L473.954 223.789L472.376 223.651L472.617 220.902L474.195 221.04L474.481 217.764L477.852 218.059L477.566 221.335L480.531 221.594L480.29 224.344L477.325 224.084ZM495.175 229.26C495.133 229.738 495.064 230.165 494.966 230.542L485.283 229.695C485.279 230.658 485.549 231.437 486.091 232.03C486.633 232.624 487.335 232.958 488.195 233.034C489.439 233.142 490.37 232.686 490.989 231.664L494.6 231.98C494.106 233.222 493.28 234.209 492.124 234.943C490.969 235.661 489.602 235.951 488.025 235.813C486.749 235.702 485.626 235.322 484.655 234.675C483.701 234.014 482.982 233.14 482.499 232.053C482.032 230.969 481.858 229.749 481.976 228.394C482.096 227.023 482.48 225.844 483.129 224.857C483.777 223.87 484.628 223.141 485.681 222.671C486.734 222.201 487.914 222.023 489.221 222.138C490.48 222.248 491.58 222.617 492.521 223.245C493.478 223.875 494.183 224.716 494.637 225.767C495.109 226.805 495.288 227.969 495.175 229.26ZM491.792 228C491.851 227.138 491.6 226.425 491.039 225.862C490.48 225.283 489.761 224.955 488.885 224.879C488.056 224.806 487.332 225 486.714 225.46C486.113 225.905 485.709 226.568 485.504 227.45L491.792 228ZM499.621 219.795L503.136 220.103L500.027 225.902L497.731 225.701L499.621 219.795ZM509.604 237.701C508.52 237.607 507.565 237.33 506.737 236.872C505.911 236.399 505.273 235.805 504.821 235.091C504.386 234.378 504.18 233.613 504.203 232.796L507.574 233.091C507.593 233.606 507.803 234.05 508.204 234.423C508.621 234.797 509.157 235.012 509.81 235.069C510.448 235.125 510.953 235.041 511.326 234.816C511.715 234.593 511.927 234.283 511.962 233.884C511.999 233.454 511.804 233.116 511.376 232.869C510.965 232.609 510.293 232.309 509.359 231.97C508.391 231.645 507.6 231.326 506.985 231.016C506.385 230.706 505.878 230.268 505.461 229.702C505.061 229.137 504.9 228.408 504.978 227.515C505.042 226.782 505.308 226.131 505.775 225.561C506.259 224.993 506.906 224.568 507.718 224.286C508.546 224.005 509.493 223.911 510.561 224.005C512.139 224.143 513.364 224.651 514.234 225.531C515.106 226.394 515.532 227.499 515.51 228.846L512.306 228.566C512.305 228.036 512.118 227.602 511.746 227.264C511.391 226.912 510.887 226.707 510.234 226.65C509.628 226.597 509.148 226.668 508.794 226.861C508.455 227.057 508.269 227.354 508.234 227.752C508.195 228.198 508.388 228.561 508.813 228.839C509.24 229.101 509.913 229.393 510.833 229.714C511.768 230.037 512.536 230.353 513.135 230.662C513.734 230.972 514.233 231.417 514.632 231.998C515.048 232.564 515.226 233.287 515.165 234.165C515.098 234.93 514.823 235.596 514.34 236.164C513.873 236.734 513.225 237.159 512.397 237.44C511.587 237.706 510.656 237.793 509.604 237.701ZM335.629 238.975C336.115 238.375 336.75 237.909 337.534 237.576C338.334 237.244 339.22 237.121 340.192 237.206C341.324 237.305 342.319 237.673 343.179 238.311C344.055 238.95 344.71 239.81 345.146 240.892C345.598 241.96 345.765 243.171 345.647 244.525C345.528 245.88 345.152 247.06 344.518 248.065C343.902 249.055 343.106 249.796 342.131 250.289C341.172 250.783 340.127 250.981 338.996 250.882C338.007 250.796 337.155 250.528 336.44 250.08C335.741 249.618 335.196 249.056 334.804 248.395L334.639 250.284L331.292 249.991L332.84 232.299L336.187 232.592L335.629 238.975ZM342.228 244.226C342.298 243.429 342.19 242.729 341.906 242.126C341.639 241.509 341.247 241.025 340.732 240.674C340.232 240.326 339.672 240.124 339.05 240.07C338.444 240.017 337.857 240.126 337.287 240.397C336.734 240.654 336.265 241.063 335.879 241.623C335.508 242.185 335.288 242.864 335.219 243.661C335.149 244.458 335.248 245.166 335.515 245.783C335.798 246.402 336.188 246.894 336.687 247.259C337.202 247.609 337.763 247.811 338.368 247.864C338.99 247.918 339.578 247.809 340.132 247.536C340.701 247.265 341.171 246.848 341.542 246.286C341.928 245.726 342.157 245.039 342.228 244.226ZM350.968 236.776C350.378 236.724 349.9 236.498 349.534 236.096C349.185 235.68 349.035 235.193 349.084 234.635C349.132 234.078 349.364 233.632 349.779 233.299C350.211 232.951 350.722 232.803 351.311 232.855C351.901 232.906 352.37 233.14 352.719 233.556C353.086 233.958 353.245 234.437 353.196 234.995C353.147 235.553 352.907 236.006 352.475 236.353C352.06 236.687 351.558 236.827 350.968 236.776ZM352.48 238.498L351.321 251.743L347.974 251.451L349.133 238.205L352.48 238.498ZM359.432 241.178C359.924 240.515 360.53 240.013 361.25 239.675C361.987 239.338 362.801 239.208 363.694 239.286L363.386 242.801L362.501 242.724C361.449 242.632 360.631 242.809 360.046 243.256C359.476 243.704 359.138 244.541 359.031 245.769L358.453 252.368L355.106 252.075L356.265 238.829L359.612 239.122L359.432 241.178ZM370.066 242.807L369.505 249.215C369.466 249.661 369.541 249.997 369.73 250.222C369.937 250.433 370.295 250.561 370.805 250.605L372.359 250.741L372.112 253.563L370.008 253.378C367.187 253.132 365.897 251.637 366.136 248.896L366.695 242.512L365.117 242.374L365.357 239.625L366.935 239.763L367.222 236.487L370.593 236.782L370.307 240.058L373.271 240.317L373.031 243.067L370.066 242.807ZM383.633 241.031C384.637 241.119 385.51 241.42 386.252 241.935C386.996 242.433 387.545 243.132 387.9 244.03C388.272 244.914 388.406 245.954 388.302 247.149L387.622 254.919L384.275 254.627L384.915 247.311C385.007 246.259 384.814 245.431 384.337 244.827C383.861 244.207 383.169 243.857 382.261 243.778C381.336 243.697 380.578 243.92 379.986 244.446C379.411 244.958 379.077 245.74 378.985 246.792L378.345 254.108L374.998 253.815L376.546 236.123L379.893 236.415L379.36 242.512C379.84 241.976 380.453 241.58 381.198 241.324C381.945 241.052 382.756 240.954 383.633 241.031ZM391.006 248.494C391.123 247.155 391.49 245.991 392.107 245.001C392.739 244.012 393.542 243.279 394.515 242.802C395.489 242.325 396.541 242.136 397.673 242.235C398.534 242.31 399.338 242.574 400.085 243.024C400.834 243.459 401.413 244.008 401.82 244.67L402.371 238.382L405.766 238.679L404.218 256.371L400.823 256.074L400.994 254.114C400.523 254.731 399.895 255.206 399.111 255.539C398.327 255.872 397.441 255.995 396.452 255.909C395.337 255.811 394.342 255.435 393.467 254.78C392.593 254.126 391.93 253.257 391.479 252.173C391.045 251.075 390.887 249.849 391.006 248.494ZM401.426 249.454C401.497 248.641 401.398 247.934 401.13 247.332C400.863 246.714 400.471 246.23 399.956 245.88C399.442 245.514 398.874 245.303 398.252 245.249C397.631 245.195 397.044 245.296 396.491 245.553C395.939 245.81 395.469 246.218 395.083 246.779C394.714 247.325 394.495 247.996 394.425 248.793C394.355 249.59 394.453 250.305 394.719 250.939C395.002 251.558 395.393 252.05 395.891 252.415C396.405 252.781 396.965 252.99 397.57 253.043C398.192 253.098 398.787 252.997 399.355 252.742C399.925 252.47 400.395 252.062 400.764 251.516C401.134 250.954 401.355 250.267 401.426 249.454ZM407.688 249.953C407.805 248.614 408.172 247.45 408.789 246.46C409.421 245.471 410.216 244.738 411.173 244.259C412.147 243.783 413.199 243.594 414.331 243.693C415.319 243.779 416.162 244.054 416.861 244.516C417.575 244.98 418.129 245.535 418.522 246.179L418.687 244.29L422.058 244.585L420.9 257.831L417.528 257.536L417.698 255.599C417.213 256.183 416.57 256.649 415.769 256.996C414.985 257.329 414.099 257.453 413.11 257.366C411.995 257.269 411 256.892 410.125 256.238C409.267 255.584 408.612 254.716 408.161 253.633C407.727 252.535 407.569 251.308 407.688 249.953ZM418.108 250.913C418.179 250.1 418.08 249.393 417.812 248.791C417.544 248.174 417.153 247.69 416.638 247.339C416.124 246.973 415.556 246.763 414.934 246.709C414.313 246.654 413.726 246.755 413.173 247.012C412.621 247.269 412.151 247.678 411.765 248.238C411.396 248.784 411.177 249.456 411.107 250.252C411.037 251.049 411.135 251.765 411.401 252.398C411.684 253.017 412.075 253.509 412.573 253.874C413.087 254.24 413.647 254.45 414.252 254.503C414.874 254.557 415.469 254.457 416.037 254.201C416.607 253.93 417.077 253.521 417.446 252.975C417.816 252.413 418.037 251.726 418.108 250.913ZM438.477 246.022L428.57 264.814L425.007 264.502L428.454 258.154L424.276 244.779L428.029 245.108L430.639 254.66L434.915 245.71L438.477 246.022ZM445.773 242.613C447.431 242.758 448.722 243.329 449.647 244.325C450.589 245.307 450.991 246.587 450.853 248.165C450.716 249.727 450.11 250.878 449.033 251.619C447.958 252.344 446.591 252.634 444.933 252.489L444.677 254.322L441.736 254.065L441.972 249.99L443.048 250.084C444.435 250.205 445.519 250.115 446.3 249.814C447.081 249.513 447.514 248.876 447.599 247.904C447.661 247.203 447.502 246.627 447.124 246.176C446.762 245.727 446.23 245.471 445.529 245.41C444.795 245.346 444.204 245.495 443.755 245.857C443.322 246.221 443.074 246.753 443.013 247.455L439.857 247.179C439.926 246.205 440.209 245.354 440.707 244.627C441.204 243.899 441.886 243.357 442.752 242.999C443.635 242.643 444.642 242.514 445.773 242.613ZM442.694 259.906C442.089 259.853 441.603 259.626 441.236 259.225C440.887 258.809 440.737 258.322 440.786 257.764C440.835 257.206 441.066 256.76 441.481 256.427C441.913 256.08 442.432 255.932 443.038 255.985C443.627 256.037 444.097 256.271 444.446 256.687C444.796 257.087 444.947 257.566 444.898 258.124C444.849 258.681 444.617 259.135 444.201 259.484C443.786 259.817 443.284 259.958 442.694 259.906ZM458.842 254.429C458.959 253.09 459.326 251.925 459.943 250.935C460.575 249.947 461.37 249.213 462.328 248.735C463.301 248.258 464.353 248.069 465.485 248.168C466.473 248.254 467.317 248.529 468.015 248.992C468.729 249.456 469.283 250.01 469.676 250.655L469.842 248.766L473.213 249.061L472.054 262.306L468.683 262.011L468.852 260.075C468.367 260.659 467.724 261.124 466.923 261.472C466.139 261.805 465.253 261.928 464.265 261.842C463.149 261.744 462.154 261.368 461.28 260.713C460.421 260.06 459.767 259.191 459.315 258.108C458.881 257.01 458.724 255.784 458.842 254.429ZM469.262 255.389C469.333 254.576 469.235 253.868 468.966 253.267C468.699 252.649 468.307 252.165 467.792 251.815C467.278 251.449 466.71 251.238 466.089 251.184C465.467 251.13 464.88 251.231 464.327 251.488C463.775 251.744 463.305 252.153 462.919 252.714C462.55 253.26 462.331 253.931 462.261 254.728C462.191 255.525 462.289 256.24 462.555 256.874C462.838 257.493 463.229 257.985 463.727 258.349C464.241 258.716 464.801 258.925 465.407 258.978C466.028 259.033 466.623 258.932 467.192 258.677C467.762 258.405 468.231 257.997 468.6 257.451C468.97 256.889 469.191 256.202 469.262 255.389ZM484.317 249.84C485.895 249.978 487.126 250.591 488.01 251.681C488.896 252.754 489.261 254.183 489.105 255.968L488.425 263.739L485.078 263.446L485.718 256.13C485.81 255.078 485.617 254.25 485.14 253.646C484.664 253.026 483.972 252.676 483.064 252.597C482.139 252.516 481.381 252.739 480.789 253.265C480.214 253.777 479.88 254.559 479.788 255.611L479.148 262.927L475.801 262.634L476.96 249.389L480.307 249.682L480.163 251.331C480.659 250.796 481.264 250.4 481.978 250.141C482.708 249.867 483.488 249.767 484.317 249.84ZM491.809 257.313C491.926 255.974 492.293 254.81 492.91 253.82C493.542 252.831 494.345 252.098 495.318 251.621C496.292 251.144 497.344 250.955 498.476 251.054C499.337 251.13 500.141 251.393 500.888 251.844C501.637 252.278 502.216 252.827 502.623 253.489L503.174 247.201L506.569 247.498L505.021 265.19L501.626 264.893L501.797 262.933C501.326 263.55 500.698 264.025 499.914 264.358C499.13 264.691 498.244 264.814 497.255 264.728C496.14 264.63 495.145 264.254 494.27 263.599C493.396 262.945 492.733 262.076 492.282 260.992C491.848 259.894 491.69 258.668 491.809 257.313ZM502.229 258.273C502.3 257.46 502.201 256.753 501.933 256.151C501.666 255.533 501.274 255.049 500.759 254.699C500.245 254.333 499.677 254.123 499.055 254.068C498.434 254.014 497.847 254.115 497.294 254.372C496.742 254.629 496.272 255.037 495.886 255.598C495.517 256.144 495.298 256.815 495.228 257.612C495.158 258.409 495.256 259.124 495.522 259.758C495.805 260.377 496.196 260.869 496.694 261.234C497.208 261.6 497.768 261.809 498.373 261.862C498.995 261.917 499.59 261.816 500.159 261.561C500.728 261.29 501.198 260.881 501.567 260.335C501.937 259.773 502.158 259.086 502.229 258.273ZM340.13 261.052L339.105 272.767C338.962 274.393 338.381 275.619 337.361 276.445C336.343 277.255 335.045 277.591 333.467 277.453C331.873 277.314 330.622 276.739 329.715 275.728C328.823 274.718 328.45 273.385 328.595 271.727L331.942 272.02C331.896 272.738 332.014 273.311 332.298 273.737C332.598 274.165 333.059 274.406 333.68 274.46C334.286 274.513 334.765 274.363 335.117 274.008C335.47 273.653 335.675 273.141 335.733 272.472L336.758 260.757L340.13 261.052ZM342.775 271.377C342.892 270.039 343.259 268.874 343.876 267.884C344.508 266.895 345.303 266.162 346.261 265.684C347.234 265.207 348.286 265.018 349.418 265.117C350.406 265.203 351.25 265.478 351.948 265.94C352.662 266.404 353.216 266.959 353.609 267.603L353.775 265.715L357.146 266.009L355.987 279.255L352.616 278.96L352.785 277.023C352.3 277.607 351.657 278.073 350.856 278.42C350.072 278.753 349.186 278.877 348.198 278.79C347.082 278.693 346.087 278.316 345.213 277.662C344.354 277.008 343.7 276.14 343.248 275.057C342.814 273.959 342.657 272.732 342.775 271.377ZM353.195 272.337C353.266 271.524 353.168 270.817 352.899 270.215C352.632 269.598 352.24 269.114 351.725 268.763C351.211 268.397 350.643 268.187 350.022 268.133C349.4 268.078 348.813 268.179 348.26 268.436C347.708 268.693 347.238 269.102 346.852 269.662C346.483 270.208 346.264 270.88 346.194 271.677C346.124 272.473 346.222 273.189 346.488 273.822C346.771 274.441 347.162 274.933 347.66 275.298C348.174 275.664 348.734 275.874 349.34 275.927C349.961 275.981 350.556 275.881 351.125 275.625C351.695 275.354 352.164 274.945 352.533 274.399C352.903 273.837 353.124 273.15 353.195 272.337ZM359.453 272.885C359.573 271.514 359.956 270.343 360.603 269.372C361.252 268.384 362.095 267.655 363.132 267.184C364.17 266.696 365.327 266.508 366.602 266.62C368.244 266.764 369.562 267.297 370.558 268.219C371.571 269.127 372.195 270.338 372.432 271.852L368.822 271.536C368.681 270.946 368.393 270.471 367.959 270.111C367.542 269.738 366.999 269.522 366.329 269.463C365.373 269.379 364.585 269.664 363.966 270.316C363.348 270.953 362.983 271.909 362.872 273.184C362.762 274.443 362.955 275.448 363.451 276.198C363.949 276.932 364.676 277.341 365.633 277.425C366.988 277.543 367.925 277.015 368.446 275.84L372.056 276.156C371.564 277.558 370.739 278.634 369.581 279.384C368.423 280.134 367.031 280.438 365.406 280.296C364.131 280.184 363.023 279.806 362.084 279.162C361.146 278.502 360.442 277.637 359.974 276.568C359.507 275.483 359.333 274.255 359.453 272.885ZM382.437 281.569L378.436 275.533L377.942 281.176L374.595 280.883L376.143 263.19L379.49 263.483L378.609 273.549L383.548 268.319L387.899 268.7L381.484 274.836L386.788 281.95L382.437 281.569ZM394.085 282.805C393.001 282.71 392.046 282.434 391.219 281.976C390.393 281.502 389.754 280.908 389.303 280.194C388.867 279.481 388.661 278.717 388.684 277.899L392.055 278.194C392.074 278.71 392.285 279.154 392.686 279.526C393.103 279.9 393.638 280.116 394.291 280.173C394.929 280.229 395.434 280.144 395.807 279.92C396.196 279.697 396.408 279.386 396.443 278.988C396.481 278.557 396.285 278.219 395.857 277.973C395.446 277.712 394.774 277.412 393.84 277.074C392.872 276.748 392.081 276.43 391.466 276.119C390.867 275.81 390.359 275.372 389.943 274.805C389.542 274.24 389.381 273.511 389.459 272.619C389.524 271.886 389.789 271.234 390.257 270.665C390.74 270.097 391.388 269.672 392.199 269.389C393.027 269.108 393.975 269.015 395.043 269.108C396.621 269.246 397.845 269.755 398.716 270.634C399.588 271.497 400.013 272.603 399.991 273.95L396.788 273.67C396.786 273.139 396.599 272.705 396.227 272.368C395.872 272.016 395.368 271.811 394.715 271.754C394.109 271.701 393.629 271.771 393.275 271.965C392.937 272.16 392.75 272.457 392.715 272.856C392.676 273.302 392.869 273.664 393.295 273.942C393.721 274.204 394.395 274.496 395.314 274.818C396.249 275.14 397.017 275.456 397.616 275.766C398.215 276.075 398.715 276.52 399.113 277.101C399.53 277.668 399.707 278.39 399.647 279.268C399.58 280.033 399.305 280.7 398.821 281.268C398.354 281.837 397.706 282.262 396.879 282.543C396.068 282.81 395.137 282.897 394.085 282.805ZM408.714 266.474C410.372 266.619 411.663 267.189 412.588 268.186C413.53 269.168 413.932 270.448 413.794 272.026C413.657 273.588 413.05 274.739 411.974 275.48C410.899 276.205 409.532 276.495 407.874 276.35L407.618 278.183L404.677 277.925L404.913 273.85L405.989 273.945C407.376 274.066 408.46 273.976 409.241 273.675C410.022 273.374 410.455 272.737 410.54 271.765C410.602 271.064 410.443 270.488 410.065 270.037C409.703 269.588 409.171 269.332 408.47 269.271C407.736 269.207 407.145 269.356 406.696 269.718C406.263 270.082 406.015 270.614 405.954 271.316L402.798 271.039C402.867 270.066 403.15 269.215 403.648 268.488C404.145 267.76 404.827 267.218 405.693 266.86C406.576 266.503 407.583 266.375 408.714 266.474ZM405.635 283.767C405.03 283.714 404.544 283.487 404.177 283.085C403.828 282.669 403.678 282.183 403.727 281.625C403.776 281.067 404.007 280.621 404.422 280.288C404.854 279.94 405.373 279.793 405.978 279.846C406.568 279.898 407.038 280.132 407.387 280.548C407.737 280.948 407.888 281.427 407.839 281.984C407.79 282.542 407.558 282.996 407.142 283.345C406.727 283.678 406.225 283.819 405.635 283.767Z" fill="white"/>
</g>
<g filter="url(#filter3_dd_161_6671)">
<path d="M47.3468 80.5996C45.4984 59.4725 61.1268 40.8473 82.2539 38.9989L306.876 19.347C328.003 17.4986 346.628 33.1271 348.477 54.2541L351.684 90.9141C353.533 112.041 337.904 130.666 316.777 132.515L53.9009 155.513L47.3468 80.5996Z" fill="url(#paint4_radial_161_6671)" shape-rendering="crispEdges"/>
<path d="M47.3468 80.5996C45.4984 59.4725 61.1268 40.8473 82.2539 38.9989L306.876 19.347C328.003 17.4986 346.628 33.1271 348.477 54.2541L351.684 90.9141C353.533 112.041 337.904 130.666 316.777 132.515L53.9009 155.513L47.3468 80.5996Z" fill="white" shape-rendering="crispEdges"/>
<path d="M98.2293 71.7796L98.4657 74.4813L94.0187 74.8703L95.2424 88.8569L91.8951 89.1497L90.6715 75.1632L86.2245 75.5522L85.9881 72.8505L98.2293 71.7796ZM108.271 87.9339C106.996 88.0454 105.824 87.8669 104.755 87.3983C103.685 86.9137 102.809 86.1792 102.129 85.1948C101.464 84.2089 101.073 83.0386 100.954 81.6838C100.836 80.3289 101.026 79.1077 101.525 78.0201C102.04 76.931 102.792 76.0623 103.779 75.4137C104.765 74.7493 105.895 74.3613 107.17 74.2497C108.445 74.1382 109.626 74.324 110.712 74.8071C111.797 75.2744 112.68 76.0002 113.36 76.9846C114.056 77.9677 114.464 79.1366 114.582 80.4915C114.701 81.8463 114.495 83.0689 113.964 84.1593C113.449 85.2484 112.69 86.1258 111.689 86.7917C110.701 87.4402 109.562 87.8209 108.271 87.9339ZM108.016 85.017C108.622 84.964 109.175 84.7711 109.676 84.4381C110.191 84.0879 110.582 83.6039 110.85 82.9863C111.117 82.3687 111.213 81.6374 111.14 80.7927C111.029 79.5335 110.61 78.5985 109.882 77.9876C109.169 77.3594 108.334 77.0871 107.378 77.1708C106.421 77.2544 105.646 77.6676 105.053 78.4101C104.474 79.1353 104.239 80.1275 104.35 81.3867C104.46 82.6459 104.856 83.591 105.537 84.222C106.233 84.8357 107.06 85.1007 108.016 85.017ZM116.412 80.2832C116.295 78.9443 116.454 77.7339 116.889 76.6518C117.341 75.5683 118.004 74.7072 118.88 74.0685C119.755 73.4297 120.759 73.0609 121.891 72.9619C122.751 72.8866 123.589 73.006 124.403 73.3202C125.217 73.6185 125.881 74.0582 126.398 74.6394L125.848 68.3514L129.243 68.0544L130.791 85.7468L127.396 86.0438L127.224 84.0833C126.867 84.7731 126.331 85.35 125.617 85.814C124.903 86.278 124.051 86.5533 123.063 86.6397C121.947 86.7373 120.902 86.5397 119.928 86.0467C118.953 85.5538 118.149 84.813 117.517 83.8244C116.899 82.8184 116.53 81.638 116.412 80.2832ZM126.84 79.419C126.769 78.6061 126.549 77.9267 126.18 77.3808C125.81 76.819 125.34 76.4103 124.772 76.1549C124.202 75.8835 123.606 75.775 122.985 75.8294C122.363 75.8838 121.803 76.0854 121.303 76.4343C120.804 76.7831 120.412 77.2671 120.129 77.8861C119.861 78.4878 119.761 79.1871 119.831 79.9841C119.901 80.7811 120.121 81.4684 120.493 82.0462C120.879 82.6067 121.35 83.0233 121.903 83.2961C122.473 83.5674 123.061 83.6766 123.667 83.6236C124.288 83.5693 124.857 83.3669 125.372 83.0167C125.886 82.6505 126.278 82.1665 126.546 81.5648C126.813 80.9472 126.911 80.2319 126.84 79.419ZM132.855 78.8447C132.738 77.5058 132.897 76.2953 133.332 75.2132C133.783 74.1298 134.439 73.2694 135.299 72.632C136.174 71.9933 137.178 71.6244 138.31 71.5254C139.298 71.4389 140.176 71.5629 140.944 71.8972C141.728 72.2301 142.37 72.6799 142.869 73.2466L142.704 71.3578L146.075 71.0628L147.234 84.3082L143.863 84.6032L143.693 82.6666C143.317 83.3259 142.765 83.8962 142.036 84.3775C141.322 84.8415 140.47 85.1168 139.482 85.2032C138.366 85.3009 137.321 85.1032 136.347 84.6103C135.388 84.1159 134.592 83.3745 133.96 82.3858C133.342 81.3799 132.973 80.1995 132.855 78.8447ZM143.283 77.9805C143.212 77.1676 142.992 76.4882 142.623 75.9423C142.253 75.3804 141.783 74.9718 141.215 74.7163C140.645 74.445 140.049 74.3365 139.428 74.3909C138.806 74.4452 138.245 74.6469 137.746 74.9957C137.246 75.3446 136.855 75.8285 136.572 76.4476C136.303 77.0493 136.204 77.7486 136.274 78.5455C136.343 79.3425 136.564 80.0299 136.936 80.6077C137.322 81.1681 137.792 81.5847 138.346 81.8575C138.916 82.1289 139.504 82.2381 140.109 82.1851C140.731 82.1307 141.3 81.9284 141.815 81.5781C142.329 81.2119 142.72 80.728 142.989 80.1263C143.256 79.5086 143.354 78.7934 143.283 77.9805ZM162.255 69.6473L155.761 89.8742L152.198 90.1859L154.49 83.3361L148.053 70.8898L151.807 70.5614L156.035 79.5149L158.692 69.959L162.255 69.6473ZM171.794 67.2227C171.204 67.2743 170.694 67.1342 170.263 66.8025C169.847 66.4534 169.615 65.9999 169.566 65.4421C169.517 64.8842 169.668 64.4052 170.018 64.0052C170.383 63.5878 170.861 63.3533 171.451 63.3017C172.04 63.2501 172.543 63.3988 172.959 63.7479C173.39 64.0796 173.629 64.5244 173.678 65.0823C173.727 65.6402 173.569 66.1278 173.204 66.5452C172.853 66.9453 172.383 67.1711 171.794 67.2227ZM173.581 68.6563L174.74 81.9017L171.393 82.1946L170.234 68.9492L173.581 68.6563ZM183.374 81.3632C182.29 81.458 181.301 81.3518 180.407 81.0446C179.511 80.7214 178.779 80.2474 178.21 79.6226C177.658 78.9964 177.322 78.2789 177.203 77.4702L180.574 77.1753C180.683 77.6798 180.967 78.0805 181.426 78.3776C181.902 78.6733 182.466 78.7925 183.12 78.7354C183.757 78.6796 184.24 78.5088 184.569 78.2231C184.913 77.936 185.068 77.5932 185.033 77.1948C184.995 76.7644 184.744 76.4651 184.28 76.297C183.83 76.1115 183.116 75.9331 182.137 75.7617C181.128 75.6091 180.293 75.4331 179.633 75.2339C178.989 75.0333 178.413 74.6902 177.905 74.2046C177.413 73.7177 177.128 73.0279 177.049 72.1353C176.985 71.4021 177.134 70.7145 177.495 70.0726C177.873 69.4293 178.437 68.8981 179.187 68.4791C179.953 68.0587 180.87 67.8018 181.938 67.7084C183.516 67.5703 184.81 67.8586 185.82 68.5733C186.829 69.2721 187.44 70.2867 187.653 71.6172L184.449 71.8975C184.355 71.3757 184.096 70.9808 183.671 70.7128C183.26 70.4275 182.728 70.3134 182.075 70.3706C181.469 70.4236 181.009 70.5763 180.693 70.8287C180.394 71.0798 180.262 71.4045 180.297 71.803C180.336 72.2493 180.589 72.5725 181.056 72.7725C181.522 72.9566 182.236 73.1271 183.197 73.2839C184.174 73.4393 184.985 73.6173 185.629 73.818C186.273 74.0186 186.842 74.3704 187.335 74.8733C187.843 75.3588 188.144 76.0392 188.237 76.9145C188.304 77.6795 188.148 78.3838 187.771 79.0271C187.409 79.669 186.846 80.2002 186.079 80.6206C185.328 81.0236 184.426 81.2712 183.374 81.3632ZM206.209 70.5238C207.165 70.6168 207.979 71.0194 208.651 71.7315C209.324 72.4436 209.704 73.2937 209.79 74.2819C209.868 75.1745 209.714 75.983 209.328 76.7075C208.956 77.4146 208.372 77.9956 207.577 78.4507C206.782 78.9057 205.818 79.1828 204.686 79.2818L197.49 79.9114L196.03 63.2231L202.916 62.6207C204.047 62.5217 205.036 62.6199 205.88 62.9154C206.741 63.2095 207.408 63.6652 207.879 64.2824C208.367 64.8983 208.647 65.6206 208.719 66.4495C208.804 67.4217 208.612 68.2576 208.144 68.9572C207.691 69.6553 207.046 70.1775 206.209 70.5238ZM199.979 69.816L203.04 69.5483C203.837 69.4785 204.435 69.2495 204.835 68.8612C205.233 68.457 205.403 67.9201 205.344 67.2507C205.286 66.5812 205.025 66.082 204.563 65.7531C204.1 65.4241 203.471 65.2945 202.674 65.3642L199.613 65.632L199.979 69.816ZM203.97 76.598C204.783 76.5269 205.395 76.2806 205.808 75.859C206.237 75.436 206.421 74.8738 206.359 74.1725C206.297 73.4553 206.009 72.9183 205.496 72.5617C204.981 72.1891 204.318 72.0384 203.505 72.1095L200.205 72.3981L200.599 76.893L203.97 76.598ZM218.992 78.247C217.717 78.3585 216.545 78.18 215.476 77.7114C214.406 77.2268 213.531 76.4923 212.85 75.5079C212.186 74.522 211.794 73.3517 211.676 71.9969C211.557 70.6421 211.748 69.4208 212.247 68.3332C212.762 67.2442 213.513 66.3754 214.5 65.7269C215.486 65.0624 216.617 64.6744 217.892 64.5629C219.167 64.4513 220.347 64.6371 221.434 65.1203C222.519 65.5875 223.401 66.3133 224.082 67.2978C224.778 68.2808 225.185 69.4498 225.304 70.8046C225.422 72.1594 225.216 73.382 224.685 74.4725C224.17 75.5615 223.412 76.4389 222.41 77.1048C221.423 77.7533 220.284 78.134 218.992 78.247ZM218.737 75.3301C219.343 75.2771 219.896 75.0842 220.397 74.7513C220.913 74.401 221.304 73.9171 221.571 73.2994C221.838 72.6818 221.935 71.9506 221.861 71.1058C221.751 69.8466 221.332 68.9116 220.604 68.3007C219.89 67.6725 219.055 67.4002 218.099 67.4839C217.143 67.5676 216.368 67.9807 215.774 68.7232C215.195 69.4485 214.961 70.4407 215.071 71.6999C215.181 72.959 215.577 73.9041 216.259 74.5351C216.955 75.1488 217.781 75.4138 218.737 75.3301ZM230.935 65.5899C231.31 64.9147 231.854 64.3451 232.569 63.8811C233.299 63.4157 234.15 63.1404 235.123 63.0554C236.254 62.9563 237.299 63.146 238.256 63.6244C239.229 64.1014 240.024 64.8349 240.641 65.8249C241.272 66.7976 241.647 67.9614 241.765 69.3162C241.884 70.671 241.718 71.8981 241.268 72.9975C240.833 74.0796 240.178 74.948 239.304 75.6027C238.446 76.256 237.451 76.6321 236.319 76.7311C235.331 76.8176 234.445 76.7023 233.663 76.3853C232.895 76.051 232.26 75.5925 231.76 75.0099L231.925 76.8987L228.578 77.1916L227.03 59.4991L230.377 59.2063L230.935 65.5899ZM238.347 69.6153C238.277 68.8184 238.049 68.1476 237.665 67.6031C237.294 67.0412 236.825 66.6326 236.256 66.3772C235.704 66.1203 235.117 66.0191 234.495 66.0735C233.889 66.1265 233.33 66.3361 232.816 66.7023C232.316 67.0512 231.925 67.5351 231.642 68.1541C231.374 68.7718 231.276 69.4791 231.345 70.276C231.415 71.073 231.635 71.7524 232.006 72.3142C232.392 72.8747 232.862 73.2913 233.416 73.5641C233.984 73.8195 234.571 73.9207 235.177 73.8677C235.799 73.8134 236.359 73.6038 236.857 73.239C237.371 72.8728 237.761 72.3809 238.029 71.7632C238.312 71.1442 238.418 70.4282 238.347 69.6153ZM244.23 59.0062L247.744 58.6987L245.689 64.9496L243.394 65.1504L244.23 59.0062ZM256.931 74.9278C255.847 75.0226 254.858 74.9164 253.964 74.6092C253.069 74.286 252.337 73.812 251.768 73.1872C251.215 72.561 250.879 71.8435 250.76 71.0348L254.132 70.7398C254.24 71.2443 254.524 71.6451 254.984 71.9422C255.459 72.2378 256.024 72.3571 256.677 72.2999C257.315 72.2441 257.798 72.0734 258.126 71.7877C258.47 71.5006 258.625 71.1578 258.59 70.7593C258.553 70.329 258.302 70.0297 257.837 69.8615C257.387 69.676 256.673 69.4976 255.694 69.3263C254.685 69.1736 253.851 68.9977 253.191 68.7985C252.547 68.5978 251.971 68.2547 251.463 67.7692C250.97 67.2822 250.685 66.5925 250.607 65.6999C250.543 64.9667 250.691 64.2791 251.053 63.6371C251.43 62.9938 251.994 62.4626 252.744 62.0437C253.511 61.6233 254.428 61.3664 255.496 61.2729C257.074 61.1349 258.368 61.4232 259.378 62.1379C260.387 62.8366 260.997 63.8512 261.21 65.1818L258.006 65.4621C257.913 64.9402 257.653 64.5454 257.228 64.2774C256.818 63.9921 256.286 63.878 255.632 63.9352C255.027 63.9882 254.566 64.1409 254.251 64.3933C253.952 64.6443 253.819 64.9691 253.854 65.3676C253.893 65.8139 254.146 66.137 254.614 66.3371C255.08 66.5212 255.793 66.6916 256.754 66.8484C257.732 67.0039 258.542 67.1819 259.186 67.3825C259.83 67.5832 260.399 67.9349 260.893 68.4378C261.401 68.9234 261.701 69.6038 261.794 70.479C261.861 71.2441 261.706 71.9483 261.328 72.5916C260.967 73.2336 260.403 73.7648 259.637 74.1851C258.885 74.5882 257.983 74.8357 256.931 74.9278ZM99.4921 107.967C100.448 108.06 101.262 108.463 101.935 109.175C102.607 109.887 102.987 110.737 103.073 111.725C103.151 112.618 102.997 113.427 102.611 114.151C102.239 114.858 101.656 115.439 100.86 115.894C100.065 116.349 99.1013 116.626 97.9696 116.725L90.7731 117.355L89.3131 100.667L96.1988 100.064C97.3305 99.9652 98.3188 100.063 99.1637 100.359C100.025 100.653 100.691 101.109 101.162 101.726C101.65 102.342 101.93 103.064 102.003 103.893C102.088 104.865 101.896 105.701 101.427 106.401C100.974 107.099 100.329 107.621 99.4921 107.967ZM93.2627 107.259L96.323 106.992C97.12 106.922 97.7183 106.693 98.118 106.305C98.5163 105.9 98.6861 105.364 98.6275 104.694C98.569 104.025 98.3085 103.525 97.846 103.197C97.3836 102.868 96.7539 102.738 95.957 102.808L92.8967 103.075L93.2627 107.259ZM97.253 114.041C98.0659 113.97 98.6787 113.724 99.0916 113.302C99.5203 112.879 99.704 112.317 99.6427 111.616C99.5799 110.899 99.292 110.362 98.779 110.005C98.2646 109.633 97.6009 109.482 96.788 109.553L93.4886 109.842L93.8819 114.336L97.253 114.041ZM106.776 101.018C106.186 101.07 105.676 100.929 105.246 100.598C104.83 100.249 104.597 99.7952 104.548 99.2373C104.5 98.6795 104.65 98.2005 105.001 97.8004C105.366 97.383 105.843 97.1485 106.433 97.0969C107.023 97.0453 107.526 97.1941 107.942 97.5431C108.372 97.8749 108.612 98.3197 108.661 98.8775C108.709 99.4354 108.551 99.923 108.186 100.34C107.836 100.741 107.366 100.966 106.776 101.018ZM108.564 102.452L109.723 115.697L106.375 115.99L105.217 102.744L108.564 102.452ZM115.637 103.905C116.006 103.166 116.516 102.567 117.166 102.109C117.833 101.649 118.612 101.38 119.505 101.302L119.812 104.816L118.928 104.894C117.876 104.986 117.1 105.302 116.602 105.844C116.119 106.384 115.931 107.268 116.039 108.495L116.616 115.094L113.269 115.387L112.11 102.141L115.457 101.848L115.637 103.905ZM126.153 103.683L126.713 110.091C126.753 110.537 126.885 110.855 127.11 111.044C127.35 111.216 127.725 111.279 128.235 111.235L129.789 111.099L130.036 113.92L127.932 114.104C125.111 114.351 123.58 113.103 123.34 110.362L122.782 103.978L121.204 104.116L120.963 101.367L122.541 101.229L122.255 97.9532L125.626 97.6583L125.912 100.934L128.877 100.674L129.118 103.424L126.153 103.683ZM138.966 99.599C139.971 99.5111 140.883 99.6562 141.703 100.034C142.521 100.396 143.184 100.989 143.689 101.812C144.209 102.618 144.522 103.618 144.626 104.814L145.306 112.584L141.959 112.877L141.319 105.561C141.227 104.509 140.893 103.727 140.319 103.215C139.742 102.687 139 102.463 138.092 102.542C137.167 102.623 136.459 102.974 135.967 103.596C135.49 104.199 135.298 105.027 135.39 106.079L136.03 113.395L132.682 113.688L131.135 95.9959L134.482 95.703L135.015 101.8C135.395 101.188 135.93 100.692 136.619 100.31C137.307 99.9128 138.09 99.6757 138.966 99.599ZM147.284 105.689C147.167 104.35 147.326 103.14 147.761 102.058C148.213 100.974 148.876 100.113 149.752 99.4745C150.627 98.8357 151.631 98.4669 152.763 98.3679C153.623 98.2926 154.461 98.412 155.276 98.7262C156.089 99.0245 156.753 99.4642 157.27 100.045L156.72 93.7574L160.115 93.4604L161.663 111.153L158.268 111.45L158.096 109.489C157.739 110.179 157.203 110.756 156.489 111.22C155.775 111.684 154.924 111.959 153.935 112.046C152.82 112.143 151.774 111.946 150.8 111.453C149.825 110.96 149.021 110.219 148.389 109.23C147.771 108.224 147.403 107.044 147.284 105.689ZM157.712 104.825C157.641 104.012 157.421 103.333 157.052 102.787C156.682 102.225 156.212 101.816 155.644 101.561C155.074 101.29 154.478 101.181 153.857 101.235C153.235 101.29 152.675 101.491 152.175 101.84C151.676 102.189 151.284 102.673 151.001 103.292C150.733 103.894 150.633 104.593 150.703 105.39C150.773 106.187 150.993 106.874 151.365 107.452C151.751 108.013 152.222 108.429 152.775 108.702C153.345 108.973 153.933 109.083 154.539 109.03C155.16 108.975 155.729 108.773 156.244 108.423C156.758 108.056 157.15 107.573 157.418 106.971C157.685 106.353 157.783 105.638 157.712 104.825ZM163.727 104.251C163.61 102.912 163.769 101.701 164.204 100.619C164.655 99.5358 165.311 98.6754 166.171 98.038C167.046 97.3993 168.05 97.0304 169.182 96.9314C170.17 96.8449 171.048 96.9689 171.816 97.3032C172.6 97.6361 173.242 98.0859 173.741 98.6526L173.576 96.7638L176.947 96.4688L178.106 109.714L174.735 110.009L174.565 108.073C174.189 108.732 173.637 109.302 172.908 109.784C172.194 110.248 171.342 110.523 170.354 110.609C169.238 110.707 168.193 110.509 167.219 110.016C166.26 109.522 165.464 108.78 164.832 107.792C164.214 106.786 163.845 105.605 163.727 104.251ZM174.155 103.386C174.084 102.574 173.864 101.894 173.495 101.348C173.125 100.786 172.655 100.378 172.087 100.122C171.517 99.851 170.921 99.7425 170.3 99.7969C169.678 99.8512 169.117 100.053 168.618 100.402C168.118 100.751 167.727 101.235 167.444 101.854C167.175 102.455 167.076 103.155 167.146 103.952C167.215 104.748 167.436 105.436 167.808 106.014C168.194 106.574 168.664 106.991 169.218 107.264C169.788 107.535 170.376 107.644 170.982 107.591C171.603 107.537 172.172 107.334 172.687 106.984C173.201 106.618 173.592 106.134 173.861 105.532C174.128 104.915 174.226 104.199 174.155 103.386ZM193.127 95.0533L186.633 115.28L183.07 115.592L185.362 108.742L178.925 96.2958L182.679 95.9674L186.907 104.921L189.564 95.365L193.127 95.0533ZM199.171 90.7662L199.799 102.348L196.978 102.594L195.561 91.082L199.171 90.7662ZM198.95 108.059C198.344 108.112 197.826 107.973 197.395 107.641C196.979 107.292 196.747 106.839 196.698 106.281C196.649 105.723 196.8 105.244 197.151 104.844C197.516 104.426 198.001 104.191 198.607 104.138C199.196 104.087 199.699 104.235 200.115 104.584C200.53 104.918 200.762 105.363 200.81 105.921C200.859 106.479 200.709 106.966 200.36 107.382C200.01 107.782 199.539 108.008 198.95 108.059ZM209.453 108.658L233.362 106.566L231.27 82.6577L207.361 84.7495L209.453 108.658ZM233.601 106.545L257.509 104.454L255.418 80.5451L231.509 82.6368L233.601 106.545Z" fill="url(#paint5_linear_161_6671)"/>
</g>
<defs>
<filter id="filter0_ddiii_161_6671" x="0.599991" y="28.68" width="618.62" height="1138.41" filterUnits="userSpaceOnUse" color-interpolation-filters="sRGB">
<feFlood flood-opacity="0" result="BackgroundImageFix"/>
<feColorMatrix in="SourceAlpha" type="matrix" values="0 0 0 0 0 0 0 0 0 0 0 0 0 0 0 0 0 0 127 0" result="hardAlpha"/>
<feOffset dy="1.3824"/>
<feGaussianBlur stdDeviation="4.1472"/>
<feColorMatrix type="matrix" values="0 0 0 0 0.0784314 0 0 0 0 0.105882 0 0 0 0 0.160784 0 0 0 0.08 0"/>
<feBlend mode="normal" in2="BackgroundImageFix" result="effect1_dropShadow_161_6671"/>
<feColorMatrix in="SourceAlpha" type="matrix" values="0 0 0 0 0 0 0 0 0 0 0 0 0 0 0 0 0 0 127 0" result="hardAlpha"/>
<feOffset dy="46.08"/>
<feGaussianBlur stdDeviation="43.2"/>
<feColorMatrix type="matrix" values="0 0 0 0 0.657035 0 0 0 0 0.0227823 0 0 0 0 0.59361 0 0 0 0.1 0"/>
<feBlend mode="normal" in2="effect1_dropShadow_161_6671" result="effect2_dropShadow_161_6671"/>
<feBlend mode="normal" in="SourceGraphic" in2="effect2_dropShadow_161_6671" result="shape"/>
<feColorMatrix in="SourceAlpha" type="matrix" values="0 0 0 0 0 0 0 0 0 0 0 0 0 0 0 0 0 0 127 0" result="hardAlpha"/>
<feOffset dy="8.2944"/>
<feGaussianBlur stdDeviation="3.9744"/>
<feComposite in2="hardAlpha" operator="arithmetic" k2="-1" k3="1"/>
<feColorMatrix type="matrix" values="0 0 0 0 0.6125 0 0 0 0 0.6125 0 0 0 0 0.6125 0 0 0 0.16 0"/>
<feBlend mode="normal" in2="shape" result="effect3_innerShadow_161_6671"/>
<feColorMatrix in="SourceAlpha" type="matrix" values="0 0 0 0 0 0 0 0 0 0 0 0 0 0 0 0 0 0 127 0" result="hardAlpha"/>
<feOffset dy="-8.2944"/>
<feGaussianBlur stdDeviation="3.9744"/>
<feComposite in2="hardAlpha" operator="arithmetic" k2="-1" k3="1"/>
<feColorMatrix type="matrix" values="0 0 0 0 0.611765 0 0 0 0 0.611765 0 0 0 0 0.611765 0 0 0 0.16 0"/>
<feBlend mode="normal" in2="effect3_innerShadow_161_6671" result="effect4_innerShadow_161_6671"/>
<feColorMatrix in="SourceAlpha" type="matrix" values="0 0 0 0 0 0 0 0 0 0 0 0 0 0 0 0 0 0 127 0" result="hardAlpha"/>
<feOffset dx="1.3824" dy="1.3824"/>
<feGaussianBlur stdDeviation="4.32"/>
<feComposite in2="hardAlpha" operator="arithmetic" k2="-1" k3="1"/>
<feColorMatrix type="matrix" values="0 0 0 0 0.85 0 0 0 0 0.85 0 0 0 0 0.85 0 0 0 0.7 0"/>
<feBlend mode="normal" in2="effect4_innerShadow_161_6671" result="effect5_innerShadow_161_6671"/>
</filter>
<filter id="filter1_dd_161_6671" x="24.2" y="281.101" width="392.35" height="253.561" filterUnits="userSpaceOnUse" color-interpolation-filters="sRGB">
<feFlood flood-opacity="0" result="BackgroundImageFix"/>
<feColorMatrix in="SourceAlpha" type="matrix" values="0 0 0 0 0 0 0 0 0 0 0 0 0 0 0 0 0 0 127 0" result="hardAlpha"/>
<feOffset dy="2.4"/>
<feGaussianBlur stdDeviation="4.8"/>
<feComposite in2="hardAlpha" operator="out"/>
<feColorMatrix type="matrix" values="0 0 0 0 0.232979 0 0 0 0 0.0850549 0 0 0 0 0.0875203 0 0 0 0.1 0"/>
<feBlend mode="normal" in2="BackgroundImageFix" result="effect1_dropShadow_161_6671"/>
<feColorMatrix in="SourceAlpha" type="matrix" values="0 0 0 0 0 0 0 0 0 0 0 0 0 0 0 0 0 0 127 0" result="hardAlpha"/>
<feOffset dy="9.6"/>
<feGaussianBlur stdDeviation="14.4"/>
<feComposite in2="hardAlpha" operator="out"/>
<feColorMatrix type="matrix" values="0 0 0 0 0.956089 0 0 0 0 0.432694 0 0 0 0 0.34033 0 0 0 0.2 0"/>
<feBlend mode="normal" in2="effect1_dropShadow_161_6671" result="effect2_dropShadow_161_6671"/>
<feBlend mode="normal" in="SourceGraphic" in2="effect2_dropShadow_161_6671" result="shape"/>
</filter>
<filter id="filter2_dd_161_6671" x="257.2" y="148.8" width="340.709" height="221.362" filterUnits="userSpaceOnUse" color-interpolation-filters="sRGB">
<feFlood flood-opacity="0" result="BackgroundImageFix"/>
<feColorMatrix in="SourceAlpha" type="matrix" values="0 0 0 0 0 0 0 0 0 0 0 0 0 0 0 0 0 0 127 0" result="hardAlpha"/>
<feOffset dy="2.4"/>
<feGaussianBlur stdDeviation="4.8"/>
<feComposite in2="hardAlpha" operator="out"/>
<feColorMatrix type="matrix" values="0 0 0 0 0.208325 0 0 0 0 0.0850549 0 0 0 0 0.232979 0 0 0 0.1 0"/>
<feBlend mode="normal" in2="BackgroundImageFix" result="effect1_dropShadow_161_6671"/>
<feColorMatrix in="SourceAlpha" type="matrix" values="0 0 0 0 0 0 0 0 0 0 0 0 0 0 0 0 0 0 127 0" result="hardAlpha"/>
<feOffset dy="9.6"/>
<feGaussianBlur stdDeviation="14.4"/>
<feComposite in2="hardAlpha" operator="out"/>
<feColorMatrix type="matrix" values="0 0 0 0 0.956089 0 0 0 0 0.596896 0 0 0 0 0.34033 0 0 0 0.2 0"/>
<feBlend mode="normal" in2="effect1_dropShadow_161_6671" result="effect2_dropShadow_161_6671"/>
<feBlend mode="normal" in="SourceGraphic" in2="effect2_dropShadow_161_6671" result="shape"/>
</filter>
<filter id="filter3_dd_161_6671" x="15.2" y="-3.2" width="368.631" height="197.114" filterUnits="userSpaceOnUse" color-interpolation-filters="sRGB">
<feFlood flood-opacity="0" result="BackgroundImageFix"/>
<feColorMatrix in="SourceAlpha" type="matrix" values="0 0 0 0 0 0 0 0 0 0 0 0 0 0 0 0 0 0 127 0" result="hardAlpha"/>
<feOffset dy="2.4"/>
<feGaussianBlur stdDeviation="4.8"/>
<feComposite in2="hardAlpha" operator="out"/>
<feColorMatrix type="matrix" values="0 0 0 0 0.232979 0 0 0 0 0.0850549 0 0 0 0 0.0875203 0 0 0 0.1 0"/>
<feBlend mode="normal" in2="BackgroundImageFix" result="effect1_dropShadow_161_6671"/>
<feColorMatrix in="SourceAlpha" type="matrix" values="0 0 0 0 0 0 0 0 0 0 0 0 0 0 0 0 0 0 127 0" result="hardAlpha"/>
<feOffset dy="9.6"/>
<feGaussianBlur stdDeviation="14.4"/>
<feComposite in2="hardAlpha" operator="out"/>
<feColorMatrix type="matrix" values="0 0 0 0 0.956089 0 0 0 0 0.432694 0 0 0 0 0.34033 0 0 0 0.2 0"/>
<feBlend mode="normal" in2="effect1_dropShadow_161_6671" result="effect2_dropShadow_161_6671"/>
<feBlend mode="normal" in="SourceGraphic" in2="effect2_dropShadow_161_6671" result="shape"/>
</filter>
<linearGradient id="paint0_linear_161_6671" x1="468.051" y1="125.465" x2="120.528" y2="738.845" gradientUnits="userSpaceOnUse">
<stop stop-color="white"/>
<stop offset="1" stop-color="#F7F7F7"/>
</linearGradient>
<radialGradient id="paint1_radial_161_6671" cx="0" cy="0" r="1" gradientUnits="userSpaceOnUse" gradientTransform="translate(247.385 495.539) rotate(-100.764) scale(183.512 554.433)">
<stop stop-color="#FDF5FF"/>
<stop offset="0.292703" stop-color="#FBF6FE"/>
<stop offset="1" stop-color="#F5F5FF"/>
</radialGradient>
<linearGradient id="paint2_linear_161_6671" x1="259.811" y1="440.751" x2="98.8618" y2="449.87" gradientUnits="userSpaceOnUse">
<stop stop-color="#FF7703"/>
<stop offset="1" stop-color="#FF0000"/>
</linearGradient>
<radialGradient id="paint3_radial_161_6671" cx="0" cy="0" r="1" gradientUnits="userSpaceOnUse" gradientTransform="translate(435.881 333.685) rotate(-90.849) scale(153.059 469.126)">
<stop stop-color="#F28462"/>
<stop offset="1" stop-color="#FC6052"/>
</radialGradient>
<radialGradient id="paint4_radial_161_6671" cx="0" cy="0" r="1" gradientUnits="userSpaceOnUse" gradientTransform="translate(222.619 150.858) rotate(-103.024) scale(124.239 519.17)">
<stop stop-color="#FDF5FF"/>
<stop offset="0.292703" stop-color="#FBF6FE"/>
<stop offset="1" stop-color="#F5F5FF"/>
</radialGradient>
<linearGradient id="paint5_linear_161_6671" x1="234.223" y1="105.887" x2="85.7771" y2="110.526" gradientUnits="userSpaceOnUse">
<stop stop-color="#FF7703"/>
<stop offset="1" stop-color="#FF0000"/>
</linearGradient>
</defs>
</svg>
